<?xml version="1.0" standalone="no"?>
<!DOCTYPE svg PUBLIC "-//W3C//DTD SVG 20010904//EN"
 "http://www.w3.org/TR/2001/REC-SVG-20010904/DTD/svg10.dtd">
<svg version="1.0" xmlns="http://www.w3.org/2000/svg"
 width="4376.000000pt" height="4376.000000pt" viewBox="0 0 4376.000000 4376.000000"
 preserveAspectRatio="xMidYMid meet">
<metadata>
Created by potrace 1.11, written by Peter Selinger 2001-2013
</metadata>
<g transform="translate(0.000000,4376.000000) scale(0.100000,-0.100000)"
fill="#000000" stroke="none">
<path d="M2360 43745 c-531 -30 -824 -73 -1087 -160 -283 -94 -587 -309 -786
-555 -310 -385 -411 -738 -459 -1615 -19 -343 -19 -38721 0 -39065 31 -558 89
-916 187 -1159 102 -250 307 -527 520 -701 319 -260 640 -377 1195 -434 412
-43 -373 -41 19940 -41 20288 0 19548 -2 19960 41 277 28 587 92 730 150 308
125 598 354 793 626 253 355 337 675 389 1493 16 248 24 38124 8 38733 -18
718 -48 1001 -140 1349 -127 476 -521 925 -994 1132 -237 104 -585 166 -1136
203 -265 18 -38803 20 -39120 3z m13215 -4695 c4 -6 93 -10 235 -10 142 0 231
-4 235 -10 4 -6 70 -10 165 -10 95 0 161 -4 165 -10 4 -6 62 -10 141 -10 83 0
134 -4 134 -10 0 -6 41 -10 104 -10 58 0 107 -4 110 -9 3 -4 88 -11 188 -15
101 -4 187 -12 193 -17 5 -5 42 -9 81 -9 40 0 76 -4 79 -10 3 -5 35 -10 70
-10 35 0 67 -4 70 -10 3 -5 33 -10 65 -10 32 0 62 -4 65 -10 3 -5 35 -10 70
-10 35 0 67 -4 70 -10 3 -5 30 -10 60 -10 30 0 57 -4 60 -10 3 -5 31 -10 61
-10 30 0 54 -4 54 -10 0 -5 23 -10 50 -10 28 0 50 -4 50 -10 0 -5 24 -10 54
-10 30 0 58 -4 61 -10 3 -5 26 -10 50 -10 24 0 47 -4 50 -10 3 -5 21 -10 40
-10 19 0 37 -4 40 -10 3 -5 26 -10 51 -10 24 0 44 -4 44 -10 0 -5 18 -10 40
-10 22 0 40 -4 40 -10 0 -5 23 -10 50 -10 28 0 50 -4 50 -10 0 -5 15 -10 34
-10 19 0 38 -4 41 -10 3 -5 21 -10 40 -10 19 0 37 -4 40 -10 3 -5 17 -10 30
-10 13 0 27 -4 30 -10 3 -5 21 -10 40 -10 19 0 37 -4 40 -10 3 -5 17 -10 31
-10 13 0 24 -4 24 -10 0 -5 18 -10 40 -10 22 0 40 -4 40 -9 0 -5 22 -11 50
-15 27 -4 52 -11 55 -16 3 -6 21 -10 40 -10 19 0 37 -4 40 -10 3 -5 15 -10 25
-10 11 0 35 -9 55 -20 20 -11 44 -20 55 -20 10 0 22 -4 25 -10 3 -5 17 -10 30
-10 13 0 27 -4 30 -10 3 -5 15 -10 25 -10 11 0 35 -9 55 -20 20 -11 44 -20 55
-20 11 0 20 -4 20 -10 0 -5 14 -10 30 -10 17 0 30 -4 30 -10 0 -5 9 -10 20
-10 11 0 20 -4 20 -10 0 -5 9 -10 20 -10 11 0 20 -4 20 -10 0 -5 14 -10 30
-10 17 0 30 -4 30 -10 0 -5 9 -10 20 -10 11 0 20 -4 20 -10 0 -5 9 -10 19 -10
11 0 21 -4 23 -8 2 -4 46 -29 98 -56 145 -74 179 -92 198 -108 9 -8 33 -22 53
-31 20 -9 42 -23 49 -32 7 -8 18 -15 24 -15 7 0 25 -13 41 -30 16 -16 34 -30
40 -30 7 0 20 -9 30 -20 10 -11 22 -20 27 -20 5 0 31 -22 58 -50 27 -27 53
-50 59 -50 16 0 281 -261 281 -276 0 -7 16 -29 35 -48 19 -20 35 -40 35 -47 0
-6 14 -24 30 -39 17 -15 30 -32 30 -37 0 -6 9 -18 20 -28 11 -10 20 -24 20
-30 0 -7 7 -18 15 -25 8 -7 27 -37 41 -69 15 -31 34 -64 42 -73 19 -23 82
-149 82 -165 0 -7 9 -28 20 -48 11 -20 20 -43 20 -53 0 -9 7 -26 15 -36 8 -11
15 -32 15 -48 0 -15 5 -28 10 -28 6 0 10 -13 10 -30 0 -16 5 -30 10 -30 6 0
10 -18 10 -40 0 -22 5 -40 10 -40 6 0 10 -15 10 -34 0 -19 5 -38 10 -41 6 -3
10 -21 10 -40 0 -19 5 -37 10 -40 6 -3 10 -31 10 -61 0 -30 5 -54 10 -54 6 0
10 -30 10 -70 0 -40 4 -70 10 -70 6 0 10 -48 10 -124 0 -73 4 -127 10 -131 6
-4 10 -65 10 -150 0 -85 -4 -146 -10 -150 -6 -4 -10 -55 -10 -121 0 -69 -4
-114 -10 -114 -5 0 -10 -24 -10 -54 0 -30 -4 -58 -10 -61 -5 -3 -10 -26 -10
-50 0 -24 -4 -47 -10 -50 -5 -3 -10 -26 -10 -51 0 -24 -4 -44 -10 -44 -5 0
-10 -18 -10 -40 0 -22 -4 -40 -10 -40 -5 0 -10 -18 -10 -40 0 -22 -4 -40 -10
-40 -5 0 -10 -13 -10 -30 0 -16 -4 -30 -9 -30 -5 0 -12 -22 -16 -50 -4 -27
-11 -52 -16 -56 -5 -3 -9 -14 -9 -24 0 -11 -9 -35 -20 -55 -11 -20 -20 -42
-20 -50 0 -8 -9 -30 -20 -50 -11 -20 -20 -42 -20 -49 0 -16 -62 -140 -72 -144
-5 -2 -8 -12 -8 -23 0 -10 -4 -19 -10 -19 -5 0 -10 -9 -10 -20 0 -11 -4 -20
-10 -20 -5 0 -10 -9 -10 -20 0 -11 -4 -20 -10 -20 -5 0 -10 -9 -10 -20 0 -11
-4 -20 -10 -20 -5 0 -10 -9 -10 -20 0 -11 -4 -20 -10 -20 -5 0 -10 -9 -10 -20
0 -11 -4 -20 -10 -20 -5 0 -10 -9 -10 -20 0 -11 -4 -20 -10 -20 -5 0 -10 -6
-10 -14 0 -7 -7 -19 -15 -26 -8 -7 -29 -40 -46 -74 -42 -83 -53 -103 -72 -124
-10 -10 -17 -23 -17 -29 0 -5 -9 -18 -20 -28 -11 -10 -20 -23 -20 -30 0 -7 -9
-20 -20 -30 -11 -10 -20 -23 -20 -30 0 -7 -9 -20 -20 -30 -11 -10 -20 -23 -20
-30 0 -7 -9 -20 -20 -30 -11 -10 -20 -23 -20 -30 0 -6 -13 -24 -30 -40 -16
-16 -30 -34 -30 -40 0 -6 -13 -24 -30 -40 -16 -16 -30 -33 -30 -37 0 -5 -13
-23 -30 -41 -16 -18 -30 -37 -30 -42 0 -6 -20 -31 -45 -55 -25 -24 -45 -49
-45 -56 0 -6 -27 -37 -60 -67 -33 -31 -60 -61 -60 -67 0 -14 -575 -590 -589
-590 -6 0 -41 -32 -77 -70 -37 -39 -72 -70 -78 -70 -6 0 -31 -20 -56 -45 -25
-24 -51 -44 -58 -45 -8 0 -31 -18 -52 -40 -21 -22 -42 -40 -47 -40 -5 0 -27
-18 -48 -40 -21 -22 -44 -40 -50 -40 -6 0 -24 -13 -40 -30 -16 -16 -34 -30
-40 -30 -6 0 -24 -13 -40 -30 -16 -16 -34 -30 -40 -30 -7 0 -20 -9 -30 -20
-10 -11 -23 -20 -29 -20 -5 0 -22 -12 -37 -26 -27 -26 -55 -44 -94 -63 -12 -5
-27 -16 -34 -25 -7 -9 -19 -16 -26 -16 -6 0 -20 -9 -30 -20 -10 -11 -23 -20
-30 -20 -7 0 -20 -9 -30 -20 -10 -11 -23 -20 -30 -20 -7 0 -20 -9 -30 -20 -10
-11 -24 -20 -32 -20 -7 0 -13 -4 -13 -10 0 -5 -8 -10 -18 -10 -10 0 -24 -9
-32 -20 -8 -11 -21 -20 -30 -20 -9 0 -22 -9 -30 -20 -8 -11 -22 -20 -32 -20
-10 0 -18 -4 -18 -10 0 -5 -7 -10 -16 -10 -9 0 -24 -8 -33 -18 -9 -9 -29 -24
-46 -32 -16 -8 -45 -25 -64 -37 -19 -13 -42 -23 -52 -23 -11 0 -19 -4 -19 -10
0 -5 -8 -10 -18 -10 -10 0 -24 -9 -32 -20 -8 -11 -22 -20 -31 -20 -10 0 -19
-3 -21 -8 -1 -4 -34 -23 -73 -41 -38 -19 -77 -41 -86 -48 -31 -26 -471 -242
-505 -249 -19 -3 -34 -10 -34 -15 0 -5 -9 -9 -20 -9 -11 0 -20 -4 -20 -10 0
-5 -9 -10 -20 -10 -11 0 -20 -4 -20 -10 0 -5 -9 -10 -20 -10 -11 0 -20 -3 -20
-7 0 -9 -48 -33 -66 -33 -7 0 -38 -13 -69 -30 -31 -16 -63 -30 -70 -30 -7 0
-39 -13 -70 -30 -31 -16 -66 -30 -76 -30 -10 0 -19 -4 -19 -10 0 -5 -9 -10
-20 -10 -11 0 -20 -4 -20 -10 0 -5 -13 -10 -30 -10 -16 0 -30 -4 -30 -10 0 -5
-9 -10 -20 -10 -11 0 -20 -4 -20 -10 0 -5 -9 -10 -20 -10 -11 0 -35 -9 -55
-20 -20 -11 -42 -20 -50 -20 -8 0 -30 -9 -50 -20 -20 -11 -44 -20 -55 -20 -10
0 -22 -4 -25 -10 -3 -5 -16 -10 -28 -10 -12 0 -35 -7 -51 -15 -15 -8 -37 -15
-47 -15 -10 0 -21 -4 -24 -10 -3 -5 -17 -10 -30 -10 -13 0 -27 -4 -30 -10 -3
-5 -17 -10 -30 -10 -13 0 -27 -4 -30 -10 -3 -5 -17 -10 -31 -10 -13 0 -24 -4
-24 -10 0 -5 -13 -10 -30 -10 -16 0 -30 -4 -30 -10 0 -5 -13 -10 -30 -10 -16
0 -30 -4 -30 -10 0 -5 -13 -10 -30 -10 -16 0 -30 -4 -30 -10 0 -5 -13 -10 -30
-10 -16 0 -30 -4 -30 -10 0 -5 -11 -10 -24 -10 -14 0 -28 -4 -31 -10 -3 -5
-17 -10 -30 -10 -13 0 -27 -4 -30 -10 -3 -5 -17 -10 -30 -10 -13 0 -27 -4 -30
-10 -3 -5 -21 -10 -40 -10 -19 0 -37 -4 -40 -10 -3 -5 -17 -10 -30 -10 -13 0
-27 -4 -30 -10 -3 -5 -22 -10 -41 -10 -19 0 -34 -4 -34 -10 0 -5 -13 -10 -30
-10 -16 0 -30 -4 -30 -10 0 -5 -15 -10 -34 -10 -19 0 -38 -4 -41 -10 -3 -5
-21 -10 -40 -10 -19 0 -37 -4 -40 -10 -3 -5 -17 -10 -30 -10 -13 0 -27 -4 -30
-10 -3 -5 -21 -10 -40 -10 -19 0 -36 -4 -39 -9 -3 -5 -37 -12 -76 -16 -39 -4
-73 -11 -76 -16 -3 -5 -25 -9 -50 -9 -24 0 -44 -4 -44 -10 0 -5 -18 -10 -40
-10 -22 0 -40 -4 -40 -10 0 -5 -15 -10 -34 -10 -19 0 -38 -4 -41 -10 -3 -5
-26 -10 -50 -10 -24 0 -47 -4 -50 -10 -3 -5 -26 -10 -50 -10 -24 0 -47 -4 -50
-10 -3 -5 -26 -10 -51 -10 -24 0 -44 -4 -44 -10 0 -5 -22 -10 -50 -10 -27 0
-50 -4 -50 -10 0 -5 -24 -10 -54 -10 -30 0 -58 -4 -61 -10 -3 -5 -26 -10 -50
-10 -24 0 -47 -4 -50 -10 -3 -5 -30 -10 -60 -10 -30 0 -57 -4 -60 -10 -3 -5
-31 -10 -61 -10 -30 0 -54 -4 -54 -10 0 -6 -28 -10 -64 -10 -36 0 -68 -4 -71
-10 -3 -5 -35 -10 -70 -10 -35 0 -67 -4 -70 -10 -3 -5 -35 -10 -71 -10 -36 0
-64 -4 -64 -10 0 -6 -31 -10 -74 -10 -41 0 -78 -4 -81 -10 -3 -5 -44 -10 -90
-10 -46 0 -87 -4 -90 -10 -3 -5 -21 -10 -40 -10 -19 0 -37 -4 -40 -10 -3 -5
-16 -10 -28 -10 -28 -1 -71 -38 -97 -85 -21 -37 -27 -109 -10 -120 6 -3 10
-16 11 -28 0 -12 9 -35 19 -52 10 -16 37 -67 60 -112 23 -45 45 -85 50 -88 4
-3 25 -40 46 -83 21 -42 46 -84 56 -93 10 -9 18 -24 18 -33 0 -9 5 -16 10 -16
6 0 10 -9 10 -20 0 -11 5 -20 10 -20 6 0 10 -8 10 -18 0 -10 9 -24 20 -32 11
-8 20 -22 20 -32 0 -10 5 -18 10 -18 6 0 10 -9 10 -20 0 -11 3 -20 8 -20 4 0
14 -15 21 -32 8 -18 25 -48 38 -67 13 -18 23 -41 23 -50 0 -9 9 -23 20 -31 11
-8 20 -22 20 -32 0 -10 4 -18 8 -18 5 0 15 -16 22 -35 8 -20 20 -41 27 -47 7
-6 27 -39 43 -74 17 -35 35 -66 40 -69 6 -4 19 -26 30 -50 11 -24 24 -47 30
-50 6 -3 19 -26 30 -50 11 -24 24 -47 30 -50 6 -3 19 -26 30 -50 11 -24 24
-46 29 -49 5 -3 24 -35 42 -71 18 -36 36 -65 41 -65 4 0 8 -9 8 -20 0 -11 5
-20 10 -20 6 0 10 -8 10 -18 0 -10 9 -24 20 -32 11 -8 20 -22 20 -32 0 -10 5
-18 10 -18 6 0 10 -8 10 -18 0 -10 9 -24 20 -32 11 -8 20 -21 20 -30 0 -9 9
-22 20 -30 11 -8 20 -22 20 -32 0 -10 5 -18 10 -18 6 0 10 -6 10 -14 0 -7 7
-19 15 -26 9 -7 25 -33 35 -56 11 -24 24 -46 30 -49 6 -3 19 -26 30 -50 11
-24 24 -47 30 -50 6 -3 19 -25 31 -48 28 -58 43 -84 61 -104 8 -10 22 -35 32
-55 9 -20 21 -40 26 -43 5 -3 17 -23 27 -43 9 -20 25 -44 35 -53 10 -9 18 -23
18 -30 0 -8 9 -21 20 -29 11 -8 20 -22 20 -32 0 -10 5 -18 10 -18 6 0 10 -8
10 -18 0 -10 9 -24 20 -32 11 -8 20 -21 20 -30 0 -9 9 -22 20 -30 11 -8 20
-22 20 -32 0 -10 5 -18 10 -18 6 0 10 -6 10 -13 0 -8 9 -22 20 -32 11 -10 20
-22 20 -26 0 -5 11 -25 25 -45 14 -20 25 -44 25 -53 0 -9 9 -23 20 -31 11 -8
20 -21 20 -29 0 -7 8 -21 18 -30 10 -9 26 -32 35 -52 9 -20 23 -42 32 -49 8
-7 15 -18 15 -25 0 -7 7 -18 15 -25 9 -7 25 -32 35 -55 10 -23 26 -48 35 -55
8 -7 15 -18 15 -25 0 -6 9 -20 20 -30 11 -10 20 -24 20 -30 0 -7 7 -18 15 -25
9 -7 23 -29 32 -49 9 -20 23 -44 31 -54 17 -19 36 -51 51 -82 5 -12 16 -27 25
-34 9 -7 16 -20 16 -27 0 -8 5 -14 10 -14 6 0 10 -8 10 -18 0 -10 9 -24 20
-32 11 -8 20 -21 20 -30 0 -9 9 -22 20 -30 11 -8 20 -21 20 -30 0 -9 9 -22 20
-30 11 -8 20 -21 20 -30 0 -9 9 -22 20 -30 11 -8 20 -22 20 -32 0 -10 5 -18
10 -18 6 0 10 -8 10 -18 0 -10 9 -24 20 -32 11 -8 20 -19 20 -26 0 -6 9 -19
20 -29 11 -10 20 -23 20 -30 0 -7 9 -20 20 -30 11 -10 20 -23 20 -30 0 -7 9
-20 19 -29 11 -10 23 -31 26 -46 3 -15 15 -36 26 -46 10 -9 19 -22 19 -29 0
-7 9 -20 20 -30 11 -10 20 -23 20 -30 0 -7 9 -20 20 -30 11 -10 20 -23 20 -30
0 -7 9 -20 20 -30 11 -10 20 -23 20 -30 0 -7 9 -20 20 -30 11 -10 20 -23 20
-30 0 -7 9 -20 20 -30 11 -10 20 -23 20 -30 0 -7 9 -20 20 -30 11 -10 20 -24
20 -30 0 -7 7 -18 15 -25 9 -7 23 -29 32 -49 9 -20 23 -44 31 -54 17 -19 36
-51 51 -85 6 -12 18 -25 26 -28 8 -4 15 -14 15 -23 0 -9 9 -23 20 -31 11 -8
20 -21 20 -30 0 -9 9 -22 20 -30 11 -8 20 -21 20 -30 0 -9 9 -22 20 -30 11 -8
20 -21 20 -30 0 -9 9 -22 20 -30 11 -8 20 -21 20 -30 0 -9 9 -22 20 -30 11 -8
20 -19 20 -26 0 -6 9 -19 20 -29 11 -10 20 -23 20 -30 0 -7 9 -20 20 -30 11
-10 20 -23 20 -30 0 -7 9 -20 20 -30 11 -10 20 -23 20 -28 0 -6 7 -19 17 -29
17 -19 36 -49 52 -83 5 -12 16 -27 25 -34 9 -7 16 -19 16 -26 0 -6 9 -20 20
-30 11 -10 20 -23 20 -30 0 -7 9 -20 20 -30 11 -10 20 -23 20 -30 0 -6 14 -24
30 -40 17 -16 30 -34 30 -40 0 -7 9 -20 20 -30 11 -10 20 -23 20 -30 0 -7 9
-20 20 -30 11 -10 20 -23 20 -30 0 -7 9 -20 20 -30 11 -10 20 -23 20 -30 0 -7
9 -20 20 -30 11 -10 20 -24 20 -30 0 -7 7 -19 16 -26 9 -7 20 -22 25 -34 13
-30 32 -58 52 -76 9 -9 17 -22 17 -29 0 -6 14 -25 30 -40 17 -15 30 -34 30
-42 0 -7 9 -20 20 -28 11 -8 20 -21 20 -30 0 -9 9 -22 20 -30 11 -8 20 -21 20
-30 0 -9 9 -22 20 -30 11 -8 20 -21 20 -30 0 -9 9 -22 20 -30 11 -8 20 -19 20
-26 0 -6 9 -19 20 -29 11 -10 20 -23 20 -29 0 -5 12 -22 26 -37 26 -27 44 -55
63 -94 5 -12 16 -27 25 -34 9 -7 16 -19 16 -26 0 -6 9 -20 20 -30 11 -10 20
-23 20 -30 0 -6 14 -24 30 -40 17 -16 30 -34 30 -40 0 -7 9 -20 20 -30 11 -10
20 -23 20 -30 0 -7 9 -20 20 -30 11 -10 20 -23 20 -30 0 -7 9 -20 20 -30 11
-10 20 -23 20 -30 0 -6 14 -24 30 -40 17 -16 30 -34 30 -40 0 -7 9 -20 20 -30
11 -10 20 -23 20 -30 0 -7 9 -20 20 -30 11 -10 20 -23 20 -30 0 -6 11 -22 25
-35 14 -13 25 -29 25 -35 0 -7 9 -20 20 -30 11 -10 20 -23 20 -29 0 -7 9 -18
20 -26 11 -8 20 -21 20 -28 0 -8 13 -27 30 -42 17 -15 30 -34 30 -42 0 -7 9
-20 20 -28 11 -8 20 -21 20 -30 0 -9 9 -22 20 -30 11 -8 20 -21 20 -28 0 -8
14 -27 30 -42 17 -15 30 -32 30 -37 0 -6 9 -18 20 -28 11 -10 20 -23 20 -29 0
-6 11 -23 25 -38 14 -15 25 -33 25 -40 0 -8 9 -20 20 -28 11 -8 20 -21 20 -30
0 -9 9 -22 20 -30 11 -8 20 -21 20 -28 0 -8 14 -27 30 -42 17 -15 30 -32 30
-37 0 -6 9 -18 20 -28 11 -10 20 -23 20 -30 0 -6 14 -24 30 -40 17 -16 30 -34
30 -40 0 -7 9 -20 20 -30 11 -10 20 -23 20 -30 0 -6 13 -24 30 -40 17 -16 30
-34 30 -40 0 -6 14 -24 30 -40 17 -16 30 -34 30 -40 0 -6 11 -22 25 -35 14
-13 25 -29 25 -35 0 -6 18 -29 40 -50 22 -21 40 -44 40 -50 0 -6 13 -24 30
-40 17 -16 30 -34 30 -40 0 -6 18 -29 40 -50 22 -21 40 -44 40 -50 0 -6 18
-29 40 -50 22 -21 40 -44 40 -50 0 -6 18 -29 40 -50 22 -21 40 -44 40 -50 0
-6 16 -26 35 -45 19 -19 35 -38 35 -43 0 -4 22 -30 50 -57 27 -27 50 -54 50
-60 0 -6 23 -33 50 -60 28 -27 50 -53 50 -59 0 -6 23 -34 50 -62 28 -28 50
-55 50 -60 0 -5 29 -38 65 -74 36 -35 65 -69 65 -75 0 -6 32 -42 70 -80 39
-38 70 -74 70 -80 0 -6 36 -45 81 -88 44 -42 88 -90 96 -105 8 -16 59 -74 114
-128 54 -54 99 -102 99 -107 0 -14 940 -952 953 -952 7 0 55 -45 108 -100 54
-55 102 -100 108 -100 6 0 41 -29 76 -65 36 -36 71 -65 79 -65 7 0 39 -27 69
-60 31 -33 61 -60 67 -60 6 0 33 -22 60 -50 27 -27 54 -50 60 -50 6 0 33 -22
60 -50 27 -27 54 -50 60 -50 6 0 25 -13 43 -30 94 -86 135 -120 147 -120 6 0
25 -13 40 -30 15 -16 33 -30 40 -30 7 0 25 -13 40 -30 15 -16 33 -30 40 -30 7
0 28 -18 47 -40 20 -22 41 -40 47 -40 7 0 25 -13 41 -30 16 -16 34 -30 40 -30
7 0 20 -9 30 -20 10 -11 23 -20 30 -20 6 0 22 -11 35 -25 13 -14 29 -25 35
-25 6 0 24 -13 40 -30 16 -16 34 -30 40 -30 7 0 20 -9 30 -20 10 -11 23 -20
30 -20 6 0 24 -13 40 -30 16 -16 34 -30 40 -30 7 0 20 -9 30 -20 10 -11 23
-20 30 -20 7 0 20 -9 30 -20 10 -11 23 -20 30 -20 7 0 20 -9 30 -20 10 -11 23
-20 30 -20 7 0 20 -9 30 -20 10 -11 23 -20 29 -20 7 0 18 -9 26 -20 8 -11 20
-20 28 -20 7 0 18 -5 25 -10 23 -19 88 -60 96 -60 4 0 16 -9 26 -20 10 -11 23
-20 29 -20 7 0 18 -9 26 -20 8 -11 22 -20 32 -20 10 0 18 -4 18 -10 0 -5 8
-10 18 -10 10 0 24 -9 32 -20 8 -11 21 -20 30 -20 9 0 22 -9 30 -20 8 -11 22
-20 32 -20 10 0 18 -4 18 -10 0 -5 7 -10 16 -10 9 0 24 -8 33 -18 19 -20 56
-42 71 -42 5 0 10 9 10 20 0 11 5 20 10 20 6 0 10 9 10 20 0 11 5 20 10 20 6
0 10 9 10 20 0 11 5 20 10 20 6 0 10 9 10 19 0 11 4 21 9 23 5 2 34 52 65 113
32 60 61 112 65 115 4 3 33 58 65 123 32 64 62 119 66 122 4 3 34 58 66 122
32 65 66 125 76 134 10 9 18 21 18 28 0 16 72 165 82 169 4 2 8 12 8 23 0 10
5 19 10 19 6 0 10 8 10 18 0 10 9 24 20 32 11 8 20 22 20 32 0 10 5 18 10 18
6 0 10 9 10 20 0 11 5 20 10 20 6 0 10 9 10 19 0 11 4 21 8 23 4 2 29 47 56
100 26 54 52 100 56 103 8 5 28 45 146 292 19 39 41 77 49 83 8 7 15 19 15 26
0 8 5 14 10 14 6 0 10 9 10 20 0 11 5 20 10 20 6 0 10 9 10 20 0 11 5 20 10
20 6 0 10 9 10 20 0 11 5 20 10 20 6 0 10 9 10 20 0 11 5 20 10 20 6 0 10 9
10 20 0 11 5 20 10 20 6 0 10 9 10 19 0 11 4 21 8 23 4 2 29 47 56 100 26 54
52 100 56 103 5 3 21 31 36 63 76 162 159 327 166 330 4 2 8 12 8 23 0 10 5
19 10 19 6 0 10 9 10 20 0 11 5 20 10 20 6 0 10 9 10 20 0 11 5 20 10 20 6 0
10 9 10 20 0 11 5 20 10 20 6 0 10 9 10 20 0 11 5 20 10 20 6 0 10 9 10 19 0
11 3 21 8 23 10 4 132 250 132 266 0 7 4 20 9 30 5 9 36 71 67 137 32 66 62
122 66 123 4 2 8 12 8 23 0 10 5 19 10 19 6 0 10 14 10 30 0 17 5 30 10 30 6
0 10 9 10 20 0 11 5 20 10 20 6 0 10 9 10 20 0 11 5 20 10 20 6 0 10 9 10 19
0 11 3 21 8 23 10 4 52 87 52 102 0 7 23 57 50 111 28 54 50 103 50 110 0 17
24 65 33 65 4 0 7 9 7 20 0 11 5 20 10 20 6 0 10 11 10 25 0 23 19 69 81 199
16 32 29 65 29 72 0 7 9 29 20 49 11 20 20 42 20 50 0 8 9 30 20 50 11 20 20
42 20 50 0 8 9 30 20 50 11 20 20 44 20 55 0 10 5 22 10 25 6 3 10 17 10 31 0
13 5 24 10 24 6 0 10 9 10 20 0 11 5 20 10 20 6 0 10 14 10 30 0 17 5 30 10
30 6 0 10 14 10 30 0 17 5 30 10 30 6 0 10 14 10 30 0 17 5 30 10 30 6 0 10
15 10 34 0 19 5 38 10 41 6 3 10 17 10 30 0 13 5 27 10 30 6 3 10 21 10 39 0
17 6 38 13 45 18 18 17 503 -1 509 -6 2 -12 14 -12 27 0 13 -4 27 -10 30 -5 3
-10 14 -10 24 0 25 -26 74 -51 97 -12 10 -25 29 -30 42 -5 12 -17 25 -26 29
-10 3 -26 13 -35 21 -26 22 -109 62 -129 62 -10 0 -21 5 -24 10 -3 6 -22 10
-41 10 -19 0 -34 5 -34 10 0 6 -18 10 -40 10 -22 0 -40 5 -40 10 0 6 -28 10
-64 10 -36 0 -68 5 -71 10 -4 7 -240 10 -676 10 -439 0 -669 -3 -669 -10 0 -6
-72 -10 -195 -10 -123 0 -195 -4 -195 -10 0 -6 -41 -10 -104 -10 -59 0 -108
-4 -111 -10 -3 -5 -44 -10 -91 -10 -49 0 -84 -4 -84 -10 0 -6 -30 -10 -70 -10
-40 0 -70 -4 -70 -10 0 -6 -28 -10 -64 -10 -36 0 -68 -4 -71 -10 -3 -5 -26
-10 -50 -10 -24 0 -47 5 -50 10 -3 6 -21 10 -39 10 -20 0 -40 8 -51 20 -10 11
-24 20 -32 20 -7 0 -16 8 -20 18 -3 9 -15 27 -26 39 -27 30 -31 210 -5 263 27
56 105 120 148 120 11 0 20 5 20 10 0 6 123 10 349 10 223 0 352 4 356 10 4 6
143 10 386 10 246 0 379 4 379 10 0 6 83 10 229 10 143 0 232 4 236 10 4 6 75
10 181 10 109 0 174 4 174 10 0 6 58 10 155 10 97 0 155 4 155 10 0 6 48 10
124 10 73 0 127 4 131 10 4 6 58 10 131 10 76 0 124 4 124 10 0 6 48 10 124
10 73 0 127 4 131 10 4 6 57 10 125 10 68 0 121 4 125 10 4 6 62 10 140 10 78
0 136 4 140 10 4 6 57 10 125 10 65 0 121 4 124 9 3 5 116 12 251 16 135 4
248 11 251 16 3 5 66 9 140 9 83 0 134 4 134 10 0 6 48 10 124 10 73 0 127 4
131 10 4 6 65 10 151 10 89 0 144 4 144 10 0 6 55 10 145 10 90 0 145 4 145
10 0 6 43 10 109 10 63 0 112 -4 116 -10 3 -5 15 -10 26 -10 38 0 92 -39 114
-83 17 -34 21 -177 5 -177 -5 0 -10 -18 -10 -40 0 -22 -4 -40 -10 -40 -5 0
-10 -13 -10 -30 0 -16 -3 -30 -8 -30 -4 0 -13 -15 -21 -32 -39 -92 -51 -116
-66 -128 -8 -7 -15 -18 -15 -25 0 -6 -9 -20 -20 -30 -11 -10 -20 -23 -20 -30
0 -6 -13 -24 -30 -40 -16 -16 -30 -34 -30 -40 0 -7 -9 -20 -20 -30 -11 -10
-20 -23 -20 -30 0 -7 -9 -20 -20 -30 -11 -10 -20 -23 -20 -30 0 -6 -13 -24
-30 -40 -16 -16 -30 -34 -30 -40 0 -7 -9 -20 -20 -30 -11 -10 -20 -24 -20 -30
0 -7 -7 -19 -16 -26 -9 -7 -20 -22 -25 -34 -16 -34 -35 -64 -52 -83 -10 -10
-17 -23 -17 -29 0 -5 -9 -18 -20 -28 -11 -10 -20 -23 -20 -30 0 -7 -9 -20 -20
-30 -11 -10 -20 -23 -20 -30 0 -7 -9 -20 -20 -30 -11 -10 -20 -23 -20 -29 0
-7 -9 -18 -20 -26 -11 -8 -20 -21 -20 -30 0 -9 -9 -22 -20 -30 -11 -8 -20 -21
-20 -30 0 -9 -9 -22 -20 -30 -11 -8 -20 -21 -20 -30 0 -9 -9 -22 -20 -30 -11
-8 -20 -21 -20 -30 0 -9 -9 -22 -20 -30 -11 -8 -20 -22 -20 -32 0 -10 -4 -18
-10 -18 -5 0 -10 -5 -10 -12 0 -6 -7 -20 -17 -30 -17 -19 -36 -49 -52 -83 -5
-12 -16 -27 -25 -34 -9 -7 -16 -19 -16 -26 0 -7 -7 -18 -15 -25 -9 -7 -25 -32
-35 -55 -10 -23 -26 -48 -35 -55 -8 -7 -15 -18 -15 -25 0 -7 -7 -18 -15 -25
-9 -7 -25 -32 -35 -55 -10 -23 -26 -48 -35 -55 -8 -7 -15 -18 -15 -25 0 -6 -9
-20 -20 -30 -11 -10 -20 -24 -20 -30 0 -7 -7 -18 -15 -25 -9 -7 -23 -29 -32
-49 -9 -20 -25 -43 -35 -52 -10 -9 -18 -23 -18 -31 0 -8 -11 -32 -25 -52 -14
-20 -25 -40 -25 -45 0 -4 -9 -16 -20 -26 -11 -10 -20 -24 -20 -32 0 -7 -4 -13
-10 -13 -5 0 -10 -8 -10 -18 0 -10 -9 -24 -20 -32 -11 -8 -20 -22 -20 -32 0
-10 -4 -18 -10 -18 -5 0 -10 -8 -10 -18 0 -10 -9 -24 -20 -32 -11 -8 -20 -21
-20 -30 0 -9 -9 -22 -20 -30 -11 -8 -20 -22 -20 -32 0 -10 -4 -18 -10 -18 -5
0 -10 -6 -10 -14 0 -7 -7 -19 -15 -26 -9 -7 -23 -29 -32 -49 -9 -20 -23 -44
-31 -53 -15 -18 -44 -70 -81 -145 -12 -23 -25 -44 -31 -48 -5 -3 -23 -35 -40
-70 -17 -35 -35 -67 -40 -70 -5 -3 -21 -31 -36 -63 -16 -31 -36 -64 -46 -73
-10 -9 -18 -24 -18 -33 0 -9 -4 -16 -10 -16 -5 0 -10 -9 -10 -20 0 -11 -4 -20
-10 -20 -5 0 -10 -8 -10 -18 0 -10 -9 -24 -20 -32 -11 -8 -20 -22 -20 -32 0
-10 -4 -18 -10 -18 -5 0 -10 -9 -10 -20 0 -11 -4 -20 -10 -20 -5 0 -10 -7 -10
-16 0 -9 -8 -24 -18 -33 -19 -17 -39 -53 -102 -178 -23 -45 -45 -85 -50 -88
-5 -3 -23 -35 -40 -70 -17 -35 -35 -67 -39 -70 -5 -3 -26 -40 -47 -83 -21 -42
-46 -84 -56 -93 -10 -9 -18 -24 -18 -33 0 -9 -4 -16 -10 -16 -5 0 -10 -9 -10
-20 0 -11 -4 -20 -10 -20 -5 0 -10 -8 -10 -18 0 -10 -9 -24 -20 -32 -11 -8
-20 -22 -20 -32 0 -10 -4 -18 -9 -18 -5 0 -11 -12 -14 -27 -3 -16 -17 -44 -31
-63 -13 -19 -43 -72 -66 -117 -23 -45 -45 -85 -50 -88 -5 -3 -27 -44 -50 -90
-23 -46 -45 -87 -50 -90 -5 -3 -32 -52 -60 -109 -28 -57 -56 -109 -63 -115 -7
-5 -19 -26 -27 -46 -7 -19 -17 -35 -22 -35 -4 0 -8 -8 -8 -19 0 -10 -10 -33
-23 -52 -12 -19 -33 -56 -47 -84 -14 -27 -28 -51 -33 -53 -4 -2 -7 -12 -7 -23
0 -10 -4 -19 -10 -19 -5 0 -10 -8 -10 -18 0 -10 -9 -24 -20 -32 -11 -8 -20
-22 -20 -32 0 -10 -4 -18 -10 -18 -5 0 -10 -9 -10 -20 0 -11 -4 -20 -10 -20
-5 0 -10 -9 -10 -20 0 -11 -4 -20 -8 -20 -5 0 -15 -16 -22 -35 -8 -20 -20 -41
-27 -46 -7 -6 -35 -57 -63 -114 -28 -57 -57 -109 -65 -115 -8 -7 -15 -17 -15
-23 0 -18 -100 -214 -115 -227 -8 -7 -15 -19 -15 -26 0 -8 -4 -14 -10 -14 -5
0 -10 -9 -10 -20 0 -11 -4 -20 -10 -20 -5 0 -10 -9 -10 -20 0 -11 -4 -20 -10
-20 -5 0 -10 -9 -10 -20 0 -11 -4 -20 -10 -20 -5 0 -10 -9 -10 -20 0 -11 -4
-20 -10 -20 -5 0 -10 -8 -10 -18 0 -10 -9 -24 -20 -32 -11 -8 -20 -22 -20 -31
0 -10 -4 -19 -8 -21 -4 -1 -29 -47 -55 -100 -27 -53 -55 -102 -63 -108 -8 -7
-14 -17 -14 -23 0 -16 -119 -254 -133 -266 -7 -5 -19 -26 -27 -46 -7 -19 -17
-35 -22 -35 -4 0 -8 -9 -8 -20 0 -11 -4 -20 -10 -20 -5 0 -10 -9 -10 -20 0
-11 -4 -20 -10 -20 -5 0 -10 -9 -10 -20 0 -11 -4 -20 -10 -20 -5 0 -10 -9 -10
-20 0 -11 -4 -20 -10 -20 -5 0 -10 -9 -10 -20 0 -11 -4 -20 -10 -20 -5 0 -10
-7 -10 -16 0 -9 -8 -24 -18 -33 -10 -9 -39 -61 -66 -116 -26 -55 -56 -117 -66
-137 -16 -31 -16 -38 -4 -38 7 0 14 -4 14 -10 0 -5 9 -10 20 -10 11 0 20 -4
20 -10 0 -5 9 -10 20 -10 11 0 20 -4 20 -10 0 -5 14 -10 30 -10 17 0 30 -4 30
-10 0 -5 9 -10 20 -10 11 0 20 -4 20 -10 0 -5 9 -10 20 -10 11 0 20 -4 20 -10
0 -5 14 -10 30 -10 17 0 30 -3 30 -7 0 -9 49 -33 67 -33 7 0 28 -9 48 -20 20
-11 42 -20 50 -20 8 0 30 -9 50 -20 20 -11 43 -20 53 -20 9 0 30 -7 46 -15 15
-8 37 -15 47 -15 10 0 21 -4 24 -10 3 -5 17 -10 30 -10 13 0 27 -4 30 -10 3
-5 14 -10 24 -10 21 0 71 -22 71 -32 0 -5 14 -8 30 -8 17 0 30 -4 30 -10 0 -5
14 -10 30 -10 17 0 30 -4 30 -10 0 -5 11 -10 24 -10 14 0 28 -4 31 -10 3 -5
17 -10 30 -10 13 0 27 -4 30 -10 3 -5 17 -10 30 -10 13 0 27 -4 30 -10 3 -5
17 -10 30 -10 13 0 27 -4 30 -10 3 -5 17 -10 30 -10 13 0 27 -4 30 -10 3 -5
22 -10 41 -10 19 0 34 -4 34 -10 0 -5 14 -10 30 -10 17 0 30 -4 30 -10 0 -5
14 -10 30 -10 17 0 30 -4 30 -10 0 -5 18 -10 40 -10 22 0 40 -4 40 -10 0 -5
15 -10 34 -10 19 0 38 -4 41 -10 3 -5 21 -10 40 -10 19 0 37 -4 40 -10 3 -5
21 -10 40 -10 19 0 37 -4 40 -10 3 -5 21 -10 39 -10 18 0 36 -3 40 -7 7 -8
105 -28 191 -40 22 -3 44 -9 49 -14 6 -5 29 -9 52 -9 24 0 46 -4 49 -10 3 -5
26 -10 50 -10 24 0 47 -5 50 -10 3 -6 30 -10 60 -10 30 0 57 -4 60 -10 3 -5
31 -10 61 -10 30 0 54 -4 54 -10 0 -6 28 -10 64 -10 36 0 68 -4 71 -10 3 -5
35 -10 70 -10 35 0 67 -4 70 -10 3 -5 44 -10 91 -10 49 0 84 -4 84 -10 0 -6
41 -10 104 -10 59 0 108 -4 111 -10 4 -6 65 -10 151 -10 89 0 144 -4 144 -10
0 -7 158 -10 455 -10 297 0 455 3 455 10 0 6 58 10 154 10 93 0 157 4 161 10
3 6 48 10 101 10 56 0 94 4 94 10 0 6 35 10 84 10 47 0 88 4 91 10 3 5 39 10
80 10 41 0 77 5 80 10 3 6 35 10 71 10 36 0 64 4 64 10 0 6 24 10 54 10 30 0
58 5 61 10 3 6 30 10 60 10 30 0 57 5 60 10 3 6 26 10 50 10 24 0 47 5 50 10
3 6 25 10 49 10 23 0 46 4 52 9 5 5 27 11 49 14 147 21 192 29 207 37 10 6 31
10 47 10 17 0 33 4 36 10 3 5 21 10 40 10 19 0 37 4 40 10 3 6 21 10 40 10 19
0 37 5 40 10 3 6 22 10 41 10 19 0 34 5 34 10 0 6 18 10 40 10 22 0 40 5 40
10 0 6 18 10 40 10 22 0 40 5 40 10 0 6 14 10 30 10 17 0 30 5 30 10 0 6 15
10 34 10 19 0 38 4 41 10 3 5 17 10 30 10 13 0 27 5 30 10 3 6 17 10 30 10 13
0 27 4 30 10 3 6 17 10 30 10 13 0 27 5 30 10 3 6 22 10 41 10 19 0 34 5 34
10 0 6 14 10 30 10 17 0 30 5 30 10 0 6 14 10 30 10 17 0 30 5 30 10 0 6 9 10
20 10 11 0 35 9 55 20 20 11 44 20 55 20 10 0 22 5 25 10 3 6 17 10 30 10 13
0 27 5 30 10 3 6 17 10 30 10 13 0 27 5 30 10 3 6 16 10 28 10 12 0 35 7 51
15 15 8 37 15 47 15 10 0 21 5 24 10 3 6 14 10 24 10 21 0 71 22 71 33 0 4 14
7 30 7 17 0 30 5 30 10 0 6 9 10 20 10 11 0 20 5 20 10 0 6 14 10 30 10 17 0
30 5 30 10 0 6 9 10 20 10 11 0 20 5 20 10 0 6 9 10 20 10 11 0 20 5 20 10 0
6 9 10 20 10 13 0 20 7 20 20 0 11 5 20 10 20 6 0 10 8 10 18 0 9 16 46 35 82
19 35 35 70 35 77 0 7 5 13 10 13 6 0 10 9 10 20 0 11 5 20 10 20 6 0 10 9 10
20 0 11 5 20 10 20 6 0 10 6 10 13 0 7 8 22 18 33 9 10 64 114 122 229 57 116
112 217 122 226 10 9 18 21 18 28 0 16 72 165 82 169 4 2 8 12 8 23 0 10 5 19
10 19 6 0 10 9 10 20 0 11 5 20 10 20 6 0 10 9 10 20 0 11 5 20 10 20 6 0 10
9 10 20 0 11 5 20 10 20 6 0 10 7 10 16 0 9 8 24 18 33 10 9 57 96 106 193 48
97 94 182 102 189 8 6 14 16 14 22 0 15 93 201 102 205 4 2 8 12 8 23 0 10 5
19 10 19 6 0 10 9 10 20 0 11 5 20 10 20 6 0 10 8 10 18 0 10 9 24 20 32 11 8
20 22 20 32 0 10 5 18 10 18 6 0 10 9 10 20 0 11 5 20 10 20 6 0 10 9 10 19 0
11 4 21 8 23 4 2 29 47 56 100 26 54 52 100 57 103 4 3 22 36 39 73 67 143 94
198 110 217 10 11 23 35 31 53 8 17 17 32 21 32 5 0 8 9 8 20 0 11 5 20 10 20
6 0 10 9 10 20 0 11 5 20 10 20 6 0 10 9 10 20 0 11 5 20 10 20 6 0 10 9 10
20 0 11 5 20 10 20 6 0 10 9 10 20 0 11 5 20 10 20 6 0 10 7 10 16 0 9 8 24
18 33 10 9 44 69 76 133 31 64 64 122 72 129 8 6 14 16 14 22 0 16 99 214 113
226 7 5 19 26 27 46 7 19 17 35 22 35 4 0 8 9 8 20 0 11 5 20 10 20 6 0 10 9
10 20 0 11 5 20 10 20 6 0 10 9 10 20 0 11 5 20 10 20 6 0 10 8 10 18 0 10 9
24 20 32 11 8 20 22 20 32 0 10 5 18 10 18 6 0 10 9 10 20 0 11 5 20 10 20 6
0 10 9 10 19 0 11 4 21 8 23 4 2 20 28 35 59 15 32 34 62 42 69 8 7 15 17 15
23 0 14 79 175 90 182 4 3 30 49 56 103 27 53 56 104 66 113 10 9 18 24 18 33
0 9 5 16 10 16 6 0 10 9 10 20 0 11 5 20 10 20 6 0 10 9 10 20 0 11 5 20 10
20 6 0 10 9 10 20 0 11 5 20 10 20 6 0 10 8 10 18 0 10 9 24 20 32 11 8 20 22
20 31 0 10 4 19 8 21 4 2 20 28 36 58 86 168 115 223 128 238 8 9 27 43 42 74
15 32 31 60 36 63 5 3 21 31 36 63 16 31 32 59 36 60 4 2 8 11 8 21 0 9 9 23
20 31 11 8 20 22 20 32 0 10 5 18 10 18 6 0 10 9 10 20 0 11 5 20 10 20 6 0
10 8 10 18 0 10 9 24 20 32 11 8 20 22 20 32 0 10 4 18 9 18 5 0 11 13 14 29
4 16 15 38 25 48 10 10 31 44 46 75 15 32 31 60 36 63 5 3 23 35 40 70 17 35
35 67 40 70 5 3 23 35 40 70 17 35 35 67 40 70 5 3 21 31 36 63 15 31 34 65
42 74 17 20 47 75 92 165 17 34 35 65 40 68 5 3 17 23 27 43 9 20 25 44 35 53
10 9 18 24 18 33 0 9 5 16 10 16 6 0 10 9 10 20 0 11 5 20 10 20 6 0 10 8 10
18 0 10 9 24 20 32 11 8 20 22 20 32 0 10 5 18 10 18 6 0 10 7 10 16 0 9 8 24
18 33 10 9 26 33 35 53 10 20 22 40 27 43 5 3 17 23 26 43 10 20 24 45 32 54
15 18 44 70 81 145 12 23 25 45 31 48 6 3 19 26 30 50 11 24 24 47 30 50 6 3
19 26 31 51 11 25 26 48 34 51 8 3 15 14 15 24 0 10 5 19 10 19 6 0 10 8 10
18 0 10 9 24 20 32 11 8 20 22 20 32 0 10 5 18 10 18 6 0 10 8 10 18 0 10 9
24 20 32 11 8 20 22 20 32 0 10 5 18 10 18 6 0 10 7 10 16 0 9 8 24 18 33 10
9 26 32 36 51 29 57 42 79 59 98 10 10 17 23 17 29 0 5 9 18 20 28 11 10 20
23 20 29 0 14 232 246 246 246 6 0 21 11 34 25 13 14 29 25 35 25 7 0 19 8 28
18 9 10 32 24 52 32 19 8 35 17 35 22 0 4 9 8 20 8 11 0 20 5 20 10 0 6 8 10
18 10 10 0 24 9 32 20 8 11 22 20 32 20 10 0 18 5 18 10 0 6 8 10 18 10 10 0
24 9 32 20 8 11 22 20 32 20 10 0 18 5 18 10 0 6 9 10 19 10 11 0 21 4 23 8 2
4 65 38 140 76 75 37 142 74 149 82 6 8 21 14 32 14 22 0 210 89 215 102 2 4
12 8 23 8 10 0 19 5 19 10 0 6 9 10 20 10 11 0 20 5 20 10 0 6 9 10 20 10 11
0 20 5 20 10 0 6 9 10 20 10 11 0 20 5 20 10 0 6 9 10 20 10 11 0 20 5 20 10
0 6 14 10 30 10 17 0 30 5 30 10 0 6 9 10 19 10 11 0 21 3 23 8 4 10 128 72
143 72 7 0 47 18 90 40 43 22 83 40 90 40 12 0 47 15 118 51 22 10 47 19 58
19 10 0 19 5 19 10 0 6 9 10 20 10 11 0 20 5 20 10 0 6 9 10 20 10 11 0 20 5
20 10 0 6 14 10 30 10 17 0 30 5 30 10 0 6 9 10 20 10 11 0 20 5 20 10 0 6 9
10 20 10 11 0 20 5 20 10 0 6 13 10 29 10 16 0 31 3 33 8 4 10 87 52 104 52 7
0 29 9 49 20 20 11 42 20 49 20 8 0 40 14 71 30 31 17 63 30 71 30 7 0 29 9
49 20 20 11 42 20 50 20 8 0 29 9 47 19 18 11 50 23 71 26 20 4 37 11 37 16 0
5 14 9 30 9 17 0 30 5 30 10 0 6 9 10 20 10 11 0 20 5 20 10 0 6 9 10 20 10
11 0 35 9 55 20 20 11 42 20 50 20 8 0 30 9 50 20 20 11 42 20 50 20 8 0 30 9
50 20 20 11 44 20 55 20 11 0 20 5 20 10 0 6 9 10 20 10 11 0 20 5 20 10 0 6
14 10 30 10 17 0 30 5 30 10 0 6 14 10 30 10 17 0 30 5 30 10 0 6 9 10 20 10
11 0 20 5 20 10 0 6 11 10 24 10 14 0 28 5 31 10 3 6 15 10 25 10 11 0 35 9
55 20 20 11 44 20 55 20 10 0 22 5 25 10 3 6 15 10 25 10 11 0 35 9 55 20 20
11 44 20 55 20 10 0 21 4 24 9 3 5 27 12 52 16 25 3 62 15 80 26 19 10 43 19
54 19 11 0 20 5 20 10 0 6 14 10 30 10 17 0 30 5 30 10 0 6 14 10 30 10 17 0
30 5 30 10 0 6 14 10 30 10 17 0 30 5 30 10 0 6 9 10 20 10 11 0 20 5 20 10 0
6 11 10 24 10 14 0 28 5 31 10 3 6 17 10 30 10 13 0 27 5 30 10 3 6 17 10 30
10 13 0 27 5 30 10 3 5 17 10 30 10 13 0 27 5 30 10 3 6 17 10 30 10 13 0 27
5 30 10 3 5 17 10 31 10 13 0 24 5 24 10 0 6 14 10 30 10 17 0 30 5 30 10 0 6
14 10 30 10 17 0 30 5 30 10 0 6 11 10 24 10 14 0 28 5 31 10 3 6 17 10 30 10
13 0 27 5 30 10 3 5 17 10 30 10 13 0 27 5 30 10 3 6 21 10 40 10 19 0 37 5
40 10 3 6 17 10 30 10 13 0 26 4 29 9 4 5 29 12 56 16 27 4 52 11 56 16 3 5
20 9 39 9 19 0 37 5 40 10 3 5 17 10 31 10 13 0 24 5 24 10 0 6 18 10 40 10
22 0 40 5 40 10 0 6 18 10 40 10 22 0 40 5 40 10 0 6 15 10 34 10 19 0 38 5
41 10 3 6 26 10 50 10 24 0 47 5 50 10 3 6 26 10 50 10 24 0 47 5 50 10 3 6
31 10 61 10 30 0 54 5 54 10 0 6 35 10 84 10 47 0 88 5 91 10 3 6 37 10 76 10
39 0 69 -4 69 -10 0 -6 28 -10 64 -10 36 0 68 -4 71 -10 3 -5 30 -10 60 -10
30 0 57 -4 60 -10 3 -5 17 -10 31 -10 13 0 24 -4 24 -10 0 -5 11 -10 25 -10
29 0 95 -59 95 -85 0 -8 5 -15 10 -15 6 0 10 -18 10 -40 0 -22 -4 -40 -10 -40
-5 0 -10 -7 -10 -16 0 -20 -24 -44 -44 -44 -9 0 -16 -4 -16 -10 0 -5 -11 -10
-24 -10 -14 0 -28 -4 -31 -10 -3 -5 -21 -10 -40 -10 -19 0 -37 -4 -40 -10 -3
-5 -26 -10 -50 -10 -24 0 -47 -4 -50 -10 -3 -6 -52 -10 -111 -10 -63 0 -104
-4 -104 -10 0 -6 -31 -10 -74 -10 -41 0 -78 -4 -81 -10 -3 -5 -35 -10 -70 -10
-35 0 -67 -5 -70 -10 -3 -5 -31 -10 -61 -10 -30 0 -54 -4 -54 -10 0 -5 -22
-10 -50 -10 -27 0 -50 -4 -50 -10 0 -5 -20 -10 -44 -10 -25 0 -48 -4 -51 -10
-3 -5 -21 -10 -40 -10 -19 0 -37 -4 -40 -10 -3 -5 -21 -10 -40 -10 -19 0 -37
-4 -40 -10 -3 -5 -21 -10 -40 -10 -19 0 -37 -4 -40 -10 -3 -5 -21 -10 -39 -10
-17 0 -36 -4 -42 -8 -5 -5 -27 -13 -49 -19 -22 -7 -64 -19 -94 -27 -29 -9 -62
-16 -72 -16 -10 0 -21 -4 -24 -10 -3 -5 -17 -10 -30 -10 -13 0 -27 -4 -30 -10
-3 -5 -17 -10 -30 -10 -13 0 -27 -4 -30 -10 -3 -5 -17 -10 -30 -10 -13 0 -27
-4 -30 -10 -3 -5 -17 -10 -30 -10 -13 0 -27 -4 -30 -10 -3 -5 -17 -10 -31 -10
-13 0 -24 -4 -24 -10 0 -5 -13 -10 -30 -10 -16 0 -30 -4 -30 -10 0 -5 -9 -10
-20 -10 -11 0 -20 -4 -20 -10 0 -5 -13 -10 -30 -10 -16 0 -30 -4 -30 -10 0 -5
-9 -10 -20 -10 -11 0 -20 -4 -20 -10 0 -5 -13 -10 -29 -10 -16 0 -31 -3 -33
-7 -4 -11 -87 -53 -103 -53 -7 0 -47 -18 -90 -40 -43 -22 -83 -40 -90 -40 -7
0 -39 -13 -71 -29 -32 -16 -86 -42 -119 -57 -33 -16 -61 -32 -63 -36 -2 -4
-11 -8 -21 -8 -9 0 -23 -9 -31 -20 -8 -11 -22 -20 -32 -20 -10 0 -18 -4 -18
-10 0 -5 -8 -10 -18 -10 -10 0 -24 -9 -32 -20 -8 -11 -22 -20 -32 -20 -10 0
-18 -4 -18 -10 0 -5 -8 -10 -18 -10 -10 0 -24 -9 -32 -20 -8 -11 -21 -20 -30
-20 -9 0 -22 -9 -30 -20 -8 -11 -19 -20 -26 -20 -6 0 -19 -9 -29 -20 -10 -11
-23 -20 -30 -20 -6 0 -24 -13 -40 -30 -16 -16 -34 -30 -39 -30 -6 0 -28 -16
-48 -35 -20 -19 -40 -35 -45 -35 -5 0 -35 -27 -68 -60 -33 -33 -64 -60 -70
-60 -6 0 -37 -27 -70 -60 -33 -33 -64 -60 -70 -60 -6 0 -44 -34 -85 -75 -41
-41 -79 -75 -85 -75 -13 0 -685 -672 -685 -685 0 -6 -40 -51 -90 -100 -49 -49
-90 -94 -90 -100 0 -6 -25 -35 -55 -65 -30 -30 -55 -59 -55 -65 0 -6 -27 -37
-60 -70 -33 -33 -60 -65 -60 -71 0 -6 -18 -28 -40 -48 -22 -20 -40 -41 -40
-47 0 -6 -18 -28 -40 -49 -22 -21 -40 -44 -40 -50 0 -6 -18 -29 -40 -50 -22
-21 -40 -43 -40 -50 0 -6 -11 -22 -25 -36 -14 -14 -25 -29 -25 -33 0 -5 -13
-24 -30 -42 -16 -19 -30 -38 -30 -42 0 -5 -14 -22 -30 -37 -17 -15 -30 -34
-30 -42 0 -7 -9 -20 -20 -28 -11 -8 -20 -21 -20 -28 0 -8 -14 -27 -30 -42 -17
-15 -30 -34 -30 -42 0 -7 -9 -20 -20 -28 -11 -8 -20 -21 -20 -30 0 -9 -9 -22
-20 -30 -11 -8 -20 -19 -20 -26 0 -6 -9 -19 -20 -29 -11 -10 -20 -23 -20 -29
0 -5 -12 -22 -26 -37 -26 -27 -44 -55 -63 -94 -5 -12 -16 -27 -25 -34 -9 -7
-16 -19 -16 -26 0 -6 -9 -20 -20 -30 -11 -10 -20 -23 -20 -30 0 -7 -9 -20 -20
-30 -11 -10 -20 -23 -20 -30 0 -7 -9 -20 -20 -30 -11 -10 -20 -23 -20 -30 0
-7 -9 -20 -20 -30 -11 -10 -20 -23 -20 -30 0 -6 -13 -24 -30 -40 -17 -16 -30
-34 -30 -40 0 -7 -9 -20 -20 -30 -11 -10 -20 -23 -20 -29 0 -7 -9 -18 -20 -26
-11 -8 -20 -21 -20 -30 0 -9 -9 -22 -20 -30 -11 -8 -20 -22 -20 -32 0 -10 -4
-18 -10 -18 -5 0 -12 -11 -16 -24 -3 -14 -14 -32 -25 -42 -10 -9 -19 -22 -19
-29 0 -7 -9 -20 -20 -30 -11 -10 -20 -23 -20 -29 0 -7 -9 -18 -20 -26 -11 -8
-20 -21 -20 -30 0 -9 -9 -22 -20 -30 -11 -8 -20 -21 -20 -30 0 -9 -9 -22 -20
-30 -11 -8 -20 -21 -20 -30 0 -9 -9 -22 -20 -30 -11 -8 -20 -22 -20 -32 0 -10
-4 -18 -10 -18 -5 0 -10 -8 -10 -18 0 -9 -9 -23 -20 -30 -11 -7 -20 -18 -20
-26 0 -7 -9 -21 -20 -31 -11 -10 -20 -23 -20 -28 0 -6 -7 -19 -17 -29 -17 -19
-36 -49 -52 -83 -5 -12 -16 -27 -25 -34 -9 -7 -16 -19 -16 -26 0 -6 -9 -20
-20 -30 -11 -10 -20 -23 -20 -30 0 -7 -9 -20 -20 -30 -11 -10 -20 -24 -20 -30
0 -7 -7 -18 -15 -25 -9 -7 -25 -32 -35 -55 -10 -23 -26 -48 -35 -55 -8 -7 -15
-18 -15 -25 0 -6 -9 -20 -20 -30 -11 -10 -20 -23 -20 -29 0 -7 -9 -18 -20 -26
-11 -8 -20 -22 -20 -32 0 -10 -4 -18 -10 -18 -5 0 -10 -8 -10 -18 0 -10 -9
-24 -20 -32 -11 -8 -20 -21 -20 -30 0 -9 -9 -22 -20 -30 -11 -8 -20 -22 -20
-32 0 -10 -4 -18 -8 -18 -5 0 -17 -19 -28 -42 -10 -24 -26 -50 -36 -59 -10 -9
-18 -23 -18 -30 0 -8 -9 -21 -20 -29 -11 -8 -20 -22 -20 -32 0 -10 -4 -18 -10
-18 -5 0 -10 -8 -10 -18 0 -10 -9 -24 -20 -32 -11 -8 -20 -21 -20 -29 0 -7 -8
-21 -18 -30 -10 -9 -26 -33 -35 -53 -10 -20 -22 -40 -27 -43 -6 -3 -19 -26
-30 -50 -11 -24 -24 -47 -30 -50 -5 -3 -17 -23 -26 -43 -10 -20 -24 -45 -32
-55 -18 -20 -33 -46 -61 -104 -12 -23 -25 -45 -31 -48 -6 -3 -19 -26 -30 -50
-11 -24 -24 -47 -30 -50 -5 -3 -17 -23 -27 -43 -9 -20 -25 -44 -35 -53 -10 -9
-18 -24 -18 -33 0 -9 -4 -16 -10 -16 -5 0 -10 -9 -10 -20 0 -11 -4 -20 -10
-20 -5 0 -10 -8 -10 -18 0 -10 -9 -24 -20 -32 -11 -8 -20 -22 -20 -32 0 -10
-4 -18 -10 -18 -5 0 -10 -8 -10 -18 0 -10 -9 -24 -20 -32 -11 -8 -20 -22 -20
-32 0 -10 -4 -18 -10 -18 -5 0 -10 -6 -10 -13 0 -8 -9 -22 -20 -32 -11 -10
-20 -22 -20 -27 0 -15 -39 -96 -50 -103 -5 -3 -23 -35 -40 -70 -17 -35 -35
-67 -40 -70 -6 -4 -19 -26 -30 -50 -11 -24 -24 -46 -30 -50 -5 -3 -23 -34 -40
-69 -16 -35 -37 -69 -45 -76 -8 -7 -15 -19 -15 -26 0 -8 -4 -14 -10 -14 -5 0
-10 -9 -10 -20 0 -11 -4 -20 -10 -20 -5 0 -10 -8 -10 -18 0 -10 -9 -24 -20
-32 -11 -8 -20 -22 -20 -32 0 -10 -4 -18 -10 -18 -5 0 -10 -9 -10 -20 0 -11
-4 -20 -10 -20 -5 0 -10 -9 -10 -20 0 -11 -3 -20 -8 -20 -4 0 -27 -38 -51 -85
-24 -47 -47 -88 -52 -90 -5 -3 -22 -35 -39 -70 -17 -35 -35 -67 -40 -70 -5 -3
-27 -44 -50 -90 -23 -46 -45 -87 -50 -90 -5 -3 -27 -43 -50 -89 -22 -46 -47
-89 -55 -96 -8 -7 -15 -16 -15 -21 0 -15 -60 -136 -73 -147 -7 -6 -19 -27 -27
-47 -7 -19 -17 -35 -22 -35 -4 0 -8 -9 -8 -20 0 -11 -4 -20 -10 -20 -5 0 -10
-9 -10 -20 0 -11 -4 -20 -10 -20 -5 0 -10 -8 -10 -18 0 -10 -9 -24 -20 -32
-11 -8 -20 -22 -20 -32 0 -10 -4 -18 -10 -18 -5 0 -10 -9 -10 -19 0 -11 -4
-21 -8 -23 -4 -1 -25 -38 -46 -80 -21 -43 -41 -80 -46 -83 -8 -5 -78 -146
-124 -247 -9 -20 -21 -40 -26 -43 -5 -3 -21 -31 -36 -63 -16 -31 -32 -58 -36
-60 -4 -2 -8 -12 -8 -23 0 -10 -4 -19 -10 -19 -5 0 -10 -9 -10 -20 0 -11 -4
-20 -10 -20 -5 0 -10 -9 -10 -20 0 -11 -4 -20 -10 -20 -5 0 -10 -9 -10 -20 0
-11 -4 -20 -10 -20 -5 0 -10 -9 -10 -20 0 -11 -4 -20 -10 -20 -5 0 -10 -9 -10
-20 0 -11 -4 -20 -10 -20 -5 0 -10 -9 -10 -19 0 -10 -6 -21 -14 -24 -7 -3 -46
-72 -86 -154 -162 -333 -195 -398 -202 -401 -5 -2 -8 -12 -8 -23 0 -10 -4 -19
-10 -19 -5 0 -10 -9 -10 -20 0 -11 -4 -20 -10 -20 -5 0 -10 -9 -10 -20 0 -11
-4 -20 -10 -20 -5 0 -10 -9 -10 -20 0 -11 -4 -20 -10 -20 -5 0 -10 -9 -10 -20
0 -11 -4 -20 -10 -20 -5 0 -10 -9 -10 -20 0 -11 -3 -20 -7 -20 -9 0 -33 -48
-33 -64 0 -6 -30 -72 -66 -146 -36 -74 -84 -171 -105 -215 -22 -44 -39 -85
-39 -91 0 -16 -24 -64 -32 -64 -5 0 -8 -9 -8 -20 0 -11 -4 -20 -10 -20 -5 0
-10 -9 -10 -20 0 -11 -4 -20 -10 -20 -5 0 -10 -9 -10 -20 0 -11 -4 -20 -10
-20 -5 0 -10 -9 -10 -20 0 -11 -4 -20 -10 -20 -5 0 -10 -9 -10 -20 0 -11 -4
-20 -10 -20 -5 0 -10 -9 -10 -20 0 -11 -3 -20 -7 -20 -9 0 -33 -48 -33 -65 0
-6 -34 -78 -75 -160 -41 -83 -75 -156 -75 -163 0 -18 -81 -186 -92 -190 -4 -2
-8 -12 -8 -23 0 -10 -4 -19 -10 -19 -5 0 -10 -13 -10 -30 0 -16 -4 -30 -10
-30 -5 0 -10 -9 -10 -20 0 -11 -4 -20 -10 -20 -5 0 -10 -9 -10 -19 0 -11 -3
-21 -8 -23 -9 -4 -72 -128 -72 -143 0 -6 -22 -56 -50 -110 -27 -54 -50 -106
-50 -117 0 -10 -4 -18 -10 -18 -5 0 -10 -9 -10 -20 0 -11 -4 -20 -10 -20 -5 0
-10 -9 -10 -20 0 -11 -4 -20 -9 -20 -5 0 -12 -17 -16 -37 -3 -20 -24 -70 -46
-111 -21 -40 -39 -79 -39 -86 0 -7 -18 -48 -40 -91 -22 -43 -40 -83 -40 -90 0
-7 -18 -47 -40 -90 -22 -43 -40 -83 -40 -89 0 -18 -24 -66 -32 -66 -5 0 -8 -9
-8 -20 0 -11 -4 -20 -10 -20 -5 0 -10 -13 -10 -30 0 -16 -4 -30 -10 -30 -5 0
-10 -9 -10 -20 0 -11 -4 -20 -10 -20 -5 0 -10 -9 -10 -20 0 -11 -4 -20 -10
-20 -5 0 -10 -9 -10 -20 0 -11 -4 -20 -10 -20 -5 0 -10 -8 -10 -18 0 -10 -11
-41 -25 -68 -14 -27 -25 -57 -25 -66 0 -10 -9 -33 -20 -53 -11 -20 -20 -42
-20 -49 0 -8 -13 -40 -30 -71 -16 -31 -30 -63 -30 -70 0 -7 -14 -39 -30 -70
-17 -31 -30 -66 -30 -76 0 -10 -4 -19 -10 -19 -5 0 -10 -9 -10 -20 0 -11 -4
-20 -10 -20 -5 0 -10 -13 -10 -30 0 -16 -4 -30 -10 -30 -5 0 -10 -9 -10 -20 0
-11 -4 -20 -10 -20 -5 0 -10 -13 -10 -30 0 -16 -4 -30 -10 -30 -5 0 -10 -9
-10 -20 0 -11 -3 -20 -7 -20 -9 0 -33 -49 -33 -67 0 -7 -9 -28 -20 -48 -11
-20 -20 -42 -20 -50 0 -8 -9 -30 -20 -50 -11 -20 -20 -42 -20 -49 0 -8 -7 -27
-15 -42 -8 -16 -15 -37 -15 -46 0 -10 -9 -33 -20 -53 -11 -20 -20 -44 -20 -55
0 -10 -4 -22 -10 -25 -5 -3 -10 -17 -10 -31 0 -13 -4 -24 -10 -24 -5 0 -10 -9
-10 -20 0 -11 -4 -20 -10 -20 -5 0 -10 -13 -10 -30 0 -16 -4 -30 -10 -30 -5 0
-10 -9 -10 -20 0 -11 -4 -20 -10 -20 -5 0 -10 -11 -10 -24 0 -14 -5 -28 -10
-31 -5 -3 -10 -15 -10 -25 0 -11 -9 -35 -20 -55 -11 -20 -20 -42 -20 -50 0 -8
-9 -30 -20 -50 -11 -20 -20 -44 -20 -55 0 -10 -4 -22 -10 -25 -5 -3 -10 -17
-10 -31 0 -13 -4 -24 -10 -24 -5 0 -10 -13 -10 -30 0 -16 -4 -30 -10 -30 -5 0
-10 -9 -10 -20 0 -11 -4 -20 -10 -20 -5 0 -10 -13 -10 -30 0 -16 -4 -30 -10
-30 -5 0 -10 -13 -10 -30 0 -16 -4 -30 -10 -30 -5 0 -10 -11 -10 -24 0 -14 -4
-28 -10 -31 -5 -3 -10 -14 -10 -24 0 -10 -7 -32 -15 -47 -8 -16 -15 -39 -15
-51 0 -12 -5 -25 -10 -28 -5 -3 -10 -17 -10 -30 0 -13 -4 -27 -10 -30 -5 -3
-10 -17 -10 -30 0 -13 -5 -27 -10 -30 -5 -3 -10 -17 -10 -30 0 -13 -4 -27 -10
-30 -5 -3 -10 -17 -10 -30 0 -13 -4 -27 -10 -30 -5 -3 -10 -17 -10 -30 0 -13
-4 -27 -10 -30 -5 -3 -10 -17 -10 -31 0 -13 -4 -24 -10 -24 -5 0 -10 -13 -10
-30 0 -16 -4 -30 -10 -30 -5 0 -10 -13 -10 -30 0 -16 -4 -30 -10 -30 -5 0 -10
-15 -10 -34 0 -19 -4 -38 -10 -41 -5 -3 -10 -17 -10 -30 0 -13 -4 -27 -10 -30
-5 -3 -10 -17 -10 -30 0 -13 -4 -27 -10 -30 -5 -3 -10 -17 -10 -30 0 -13 -5
-27 -10 -30 -6 -3 -10 -17 -10 -31 0 -13 -4 -24 -10 -24 -5 0 -10 -18 -10 -40
0 -22 -4 -40 -10 -40 -5 0 -10 -13 -10 -30 0 -16 -4 -30 -10 -30 -5 0 -10 -18
-10 -40 0 -22 -4 -40 -10 -40 -5 0 -10 -11 -10 -24 0 -14 -5 -28 -10 -31 -5
-3 -10 -21 -10 -40 0 -19 -4 -37 -10 -40 -5 -3 -10 -17 -10 -30 0 -13 -4 -26
-9 -29 -5 -3 -12 -37 -16 -76 -4 -39 -11 -73 -16 -76 -5 -3 -9 -20 -9 -39 0
-19 -4 -37 -10 -40 -5 -3 -10 -21 -10 -40 0 -19 -4 -37 -10 -40 -5 -3 -10 -19
-10 -35 0 -16 -4 -32 -10 -35 -5 -3 -10 -21 -10 -40 0 -19 -5 -37 -10 -40 -5
-3 -10 -26 -10 -50 0 -24 -5 -47 -10 -50 -6 -3 -10 -21 -10 -40 0 -19 -4 -37
-10 -40 -5 -3 -10 -31 -10 -61 0 -30 -4 -54 -10 -54 -5 0 -10 -22 -10 -50 0
-27 -4 -50 -10 -50 -6 0 -10 -28 -10 -64 0 -36 -4 -68 -10 -71 -5 -3 -10 -39
-10 -80 0 -41 -4 -77 -10 -80 -6 -4 -10 -118 -10 -310 0 -192 4 -306 10 -310
6 -3 10 -31 10 -61 0 -30 5 -54 10 -54 6 0 10 -22 10 -50 0 -27 5 -50 10 -50
6 0 10 -15 10 -34 0 -19 5 -38 10 -41 6 -3 10 -17 10 -30 0 -13 5 -27 10 -30
6 -3 10 -15 10 -25 0 -11 9 -35 20 -55 11 -20 20 -41 20 -49 0 -15 41 -98 61
-122 15 -18 34 -49 48 -79 5 -12 16 -27 25 -34 9 -7 16 -17 16 -22 0 -14 188
-199 202 -199 8 0 22 -12 32 -26 11 -14 38 -34 60 -45 23 -11 74 -38 115 -60
41 -21 80 -39 87 -39 7 0 29 -9 49 -20 20 -11 44 -20 55 -20 10 0 22 -4 25
-10 3 -5 21 -10 40 -10 19 0 37 -4 40 -10 3 -6 22 -10 41 -10 19 0 34 -4 34
-10 0 -5 23 -10 50 -10 28 0 50 -4 50 -10 0 -6 28 -10 64 -10 36 0 68 -4 71
-10 8 -14 552 -14 560 0 3 6 39 10 80 10 41 0 77 5 80 10 3 6 31 10 61 10 30
0 54 5 54 10 0 6 23 10 50 10 28 0 50 5 50 10 0 6 15 10 34 10 19 0 38 5 41
10 3 6 26 10 50 10 24 0 47 4 50 10 3 5 21 10 40 10 19 0 37 5 40 10 3 6 17
10 30 10 13 0 27 5 30 10 3 6 21 10 40 10 19 0 37 5 40 10 3 6 17 10 30 10 13
0 26 4 29 9 3 5 33 12 66 16 33 4 60 11 60 16 0 5 14 9 30 9 17 0 30 5 30 10
0 6 14 10 30 10 17 0 30 5 30 10 0 6 11 10 24 10 14 0 28 5 31 10 3 6 17 10
30 10 13 0 27 5 30 10 3 6 17 10 30 10 13 0 27 5 30 10 3 6 15 10 25 10 11 0
35 9 55 20 20 11 44 20 55 20 10 0 22 5 25 10 3 6 17 10 31 10 13 0 24 5 24
10 0 6 9 10 20 10 11 0 20 5 20 10 0 6 14 10 30 10 17 0 30 5 30 10 0 6 9 10
20 10 11 0 20 5 20 10 0 6 13 10 29 10 16 0 31 3 33 8 4 9 87 52 101 52 7 0
48 17 92 39 44 21 143 70 220 107 77 38 142 72 143 76 2 4 11 8 21 8 9 0 23 9
31 20 8 11 22 20 32 20 10 0 18 5 18 10 0 6 8 10 18 10 10 0 24 9 32 20 8 11
21 20 30 20 9 0 22 9 30 20 15 21 50 28 50 10 0 -5 18 -10 40 -10 22 0 40 -4
40 -10 0 -5 9 -10 20 -10 13 0 20 -7 20 -18 0 -10 9 -24 20 -32 39 -28 22
-171 -25 -210 -8 -7 -15 -18 -15 -24 0 -17 -83 -96 -101 -96 -9 0 -51 -18 -94
-40 -43 -22 -86 -40 -96 -40 -11 0 -19 -4 -19 -10 0 -5 -9 -10 -20 -10 -11 0
-20 -4 -20 -10 0 -5 -9 -10 -20 -10 -11 0 -20 -4 -20 -10 0 -5 -13 -10 -30
-10 -16 0 -30 -4 -30 -10 0 -5 -9 -10 -20 -10 -11 0 -20 -4 -20 -10 0 -5 -9
-10 -20 -10 -11 0 -35 -9 -55 -20 -20 -11 -42 -20 -50 -20 -8 0 -30 -9 -50
-20 -20 -11 -42 -20 -49 -20 -8 0 -27 -7 -42 -15 -16 -8 -37 -15 -46 -15 -10
0 -33 -9 -53 -20 -20 -11 -42 -20 -50 -20 -8 0 -30 -9 -50 -20 -20 -11 -44
-20 -55 -20 -11 0 -20 -4 -20 -10 0 -5 -13 -10 -30 -10 -16 0 -30 -4 -30 -10
0 -5 -9 -10 -20 -10 -11 0 -20 -4 -20 -10 0 -5 -13 -10 -30 -10 -16 0 -30 -4
-30 -10 0 -5 -13 -10 -30 -10 -16 0 -30 -4 -30 -10 0 -5 -9 -10 -20 -10 -11 0
-20 -4 -20 -10 0 -5 -11 -10 -24 -10 -14 0 -28 -5 -31 -10 -3 -6 -17 -10 -30
-10 -13 0 -27 -4 -30 -10 -3 -5 -15 -10 -25 -10 -11 0 -35 -9 -55 -20 -20 -11
-44 -20 -55 -20 -10 0 -22 -4 -25 -10 -3 -6 -17 -10 -30 -10 -13 0 -27 -4 -30
-10 -3 -5 -17 -10 -30 -10 -13 0 -27 -4 -30 -10 -3 -5 -14 -10 -25 -10 -10 0
-35 -9 -57 -20 -47 -24 -187 -70 -213 -70 -10 0 -22 -4 -25 -10 -3 -6 -17 -10
-30 -10 -13 0 -27 -4 -30 -10 -3 -5 -17 -10 -30 -10 -13 0 -27 -4 -30 -10 -3
-5 -17 -10 -30 -10 -13 0 -27 -4 -30 -10 -3 -5 -17 -10 -30 -10 -13 0 -27 -4
-30 -10 -3 -5 -17 -10 -31 -10 -13 0 -24 -4 -24 -10 0 -5 -13 -10 -30 -10 -16
0 -30 -4 -30 -10 0 -5 -18 -10 -40 -10 -22 0 -40 -4 -40 -10 0 -5 -13 -10 -30
-10 -16 0 -30 -4 -30 -10 0 -5 -15 -10 -34 -10 -19 0 -38 -4 -41 -10 -3 -5
-17 -10 -30 -10 -13 0 -27 -4 -30 -10 -3 -5 -21 -10 -40 -10 -19 0 -37 -4 -40
-10 -3 -5 -21 -10 -40 -10 -19 0 -37 -5 -40 -10 -3 -6 -26 -10 -51 -10 -24 0
-44 -4 -44 -10 0 -5 -18 -10 -40 -10 -22 0 -40 -4 -40 -10 0 -5 -20 -10 -44
-10 -25 0 -48 -4 -51 -10 -3 -5 -21 -10 -40 -10 -19 0 -37 -4 -40 -10 -3 -5
-26 -10 -50 -10 -24 0 -47 -5 -50 -10 -3 -6 -30 -10 -60 -10 -30 0 -57 -4 -60
-10 -3 -6 -25 -10 -49 -10 -23 0 -46 -4 -51 -9 -6 -6 -61 -13 -123 -17 -62 -4
-115 -11 -118 -15 -3 -5 -34 -9 -69 -9 -35 0 -67 -4 -70 -10 -3 -5 -35 -10
-71 -10 -36 0 -64 -4 -64 -10 0 -6 -31 -10 -74 -10 -41 0 -78 -5 -81 -10 -3
-6 -48 -10 -100 -10 -52 0 -97 -4 -100 -10 -3 -6 -48 -10 -101 -10 -56 0 -94
-4 -94 -10 0 -6 -48 -10 -124 -10 -73 0 -127 -4 -131 -10 -4 -6 -70 -10 -165
-10 -95 0 -161 -4 -165 -10 -8 -13 -212 -13 -220 0 -3 5 -39 10 -80 10 -41 0
-77 5 -80 10 -3 6 -26 10 -51 10 -24 0 -44 5 -44 10 0 6 -18 10 -40 10 -22 0
-40 5 -40 10 0 6 -13 10 -30 10 -16 0 -30 5 -30 10 0 6 -13 10 -30 10 -16 0
-30 5 -30 10 0 6 -9 10 -19 10 -11 0 -36 9 -58 20 -21 10 -59 28 -84 39 -25
11 -52 27 -59 36 -7 8 -18 15 -24 15 -7 0 -25 14 -41 30 -16 17 -33 30 -39 30
-14 0 -166 152 -166 166 0 6 -11 21 -25 34 -14 13 -25 29 -25 36 0 6 -7 17
-15 24 -9 7 -25 33 -35 56 -11 24 -24 45 -29 49 -14 8 -41 65 -41 87 0 10 -4
18 -10 18 -5 0 -10 9 -10 20 0 11 -4 20 -10 20 -5 0 -10 14 -10 30 0 17 -4 30
-10 30 -5 0 -10 14 -10 30 0 17 -4 30 -10 30 -5 0 -10 14 -10 30 0 17 -4 30
-10 30 -5 0 -10 15 -10 34 0 19 -4 38 -10 41 -5 3 -10 30 -10 60 0 30 -4 57
-10 60 -5 3 -10 44 -10 91 0 49 -4 84 -10 84 -14 0 -14 387 0 395 6 4 10 55
10 121 0 69 4 114 10 114 6 0 10 31 10 74 0 41 5 78 10 81 5 3 10 35 10 71 0
36 4 64 10 64 6 0 10 23 10 50 0 28 5 50 10 50 6 0 10 23 10 50 0 28 5 50 10
50 6 0 10 15 10 34 0 19 5 38 10 41 6 3 10 26 10 50 0 24 5 47 10 50 5 3 10
17 10 30 0 13 5 27 10 30 6 3 10 22 10 41 0 19 5 34 10 34 6 0 10 18 10 40 0
22 5 40 10 40 6 0 10 14 10 30 0 17 5 30 10 30 6 0 10 14 10 30 0 17 5 30 10
30 6 0 10 11 10 24 0 14 4 27 9 30 5 4 12 29 16 56 4 27 11 52 16 56 5 3 9 16
9 29 0 13 5 27 10 30 5 3 10 17 10 30 0 13 5 27 10 30 6 3 10 15 10 25 0 11 9
35 20 55 11 20 20 44 20 55 0 10 5 22 10 25 5 3 10 17 10 31 0 13 5 24 10 24
6 0 10 14 10 30 0 17 5 30 10 30 6 0 10 14 10 30 0 17 5 30 10 30 6 0 10 9 10
20 0 11 5 20 10 20 6 0 10 11 10 24 0 14 5 28 10 31 5 3 10 15 10 25 0 11 9
35 20 55 11 20 20 44 20 55 0 10 5 22 10 25 6 3 10 15 10 25 0 11 9 35 20 55
11 20 20 44 20 55 0 11 5 20 10 20 6 0 10 14 10 30 0 17 5 30 10 30 6 0 10 9
10 20 0 11 5 20 10 20 6 0 10 14 10 30 0 17 5 30 10 30 6 0 10 14 10 30 0 17
4 30 10 30 5 0 12 17 16 38 4 20 15 52 26 70 10 18 18 39 18 47 0 8 9 30 20
50 11 20 20 42 20 50 0 8 9 30 20 50 11 20 20 42 20 50 0 8 9 30 20 50 11 20
20 44 20 55 0 11 5 20 10 20 6 0 10 9 10 20 0 11 5 20 10 20 6 0 10 14 10 30
0 17 5 30 10 30 6 0 10 9 10 20 0 11 5 20 10 20 6 0 10 14 10 30 0 17 5 30 10
30 6 0 10 9 10 20 0 11 5 20 10 20 6 0 10 9 10 20 0 11 9 35 20 55 11 20 20
42 20 49 0 8 13 40 30 71 16 31 30 63 30 71 0 8 4 22 9 32 21 39 41 86 41 98
0 6 14 38 30 69 17 31 30 66 30 76 0 10 5 19 10 19 6 0 10 9 10 20 0 11 5 20
10 20 6 0 10 9 10 20 0 11 5 20 10 20 6 0 10 14 10 30 0 17 5 30 10 30 6 0 10
9 10 20 0 11 5 20 10 20 6 0 10 9 10 20 0 11 5 20 10 20 6 0 10 9 10 19 0 10
14 45 30 76 17 31 30 63 30 70 0 7 14 39 30 70 17 31 30 62 30 69 0 18 24 66
33 66 4 0 7 9 7 20 0 11 5 20 10 20 6 0 10 9 10 20 0 11 5 20 10 20 6 0 10 12
10 28 0 15 11 47 25 71 14 23 25 49 25 56 0 7 18 47 40 90 22 43 40 83 40 90
0 6 23 56 50 110 28 54 50 104 50 111 0 15 42 98 53 102 4 2 7 12 7 23 0 10 5
19 10 19 6 0 10 9 10 20 0 11 5 20 10 20 6 0 10 14 10 30 0 17 5 30 10 30 6 0
10 9 10 20 0 11 5 20 10 20 6 0 10 9 10 20 0 11 5 20 10 20 6 0 10 9 10 20 0
11 5 20 10 20 6 0 10 6 10 13 0 6 11 34 25 61 14 27 25 55 25 61 0 6 36 83 80
170 44 87 80 167 80 177 0 10 5 18 10 18 6 0 10 9 10 20 0 11 5 20 10 20 6 0
10 14 10 30 0 17 5 30 10 30 6 0 10 14 10 30 0 17 5 30 10 30 6 0 10 13 10 28
0 16 8 34 20 42 11 8 20 22 20 32 0 10 5 18 10 18 6 0 10 8 10 18 0 10 16 49
35 88 19 38 35 76 35 85 0 9 23 60 50 114 28 54 50 104 50 110 0 15 63 139 73
143 4 2 7 12 7 23 0 10 5 19 10 19 6 0 10 14 10 30 0 17 5 30 10 30 6 0 10 9
10 20 0 11 5 20 10 20 6 0 10 9 10 20 0 11 5 20 10 20 6 0 10 9 10 20 0 11 3
20 8 20 8 0 32 48 32 65 0 7 23 56 50 110 28 54 50 105 50 114 0 9 20 56 45
106 25 49 45 94 45 100 0 17 24 65 33 65 4 0 7 9 7 20 0 11 5 20 10 20 6 0 10
9 10 20 0 11 5 20 10 20 6 0 10 9 10 20 0 11 5 20 10 20 6 0 10 14 10 30 0 17
5 30 10 30 6 0 10 9 10 19 0 11 3 21 8 23 10 4 52 87 52 102 0 7 22 57 50 111
27 54 50 103 50 110 0 17 24 65 33 65 4 0 7 9 7 20 0 11 4 20 9 20 5 0 11 10
14 23 10 42 50 142 58 145 5 2 9 12 9 23 0 10 5 19 10 19 6 0 10 9 10 20 0 11
5 20 10 20 6 0 10 9 10 20 0 11 5 20 10 20 6 0 10 7 10 15 0 8 -7 15 -15 15
-8 0 -15 -4 -15 -10 0 -5 -9 -10 -20 -10 -11 0 -20 -4 -20 -10 0 -5 -9 -10
-20 -10 -11 0 -20 -4 -20 -10 0 -5 -9 -10 -20 -10 -11 0 -35 -9 -55 -20 -20
-11 -44 -20 -55 -20 -10 0 -22 -4 -25 -10 -3 -5 -14 -10 -24 -10 -10 0 -32 -7
-47 -15 -16 -8 -37 -15 -46 -15 -10 0 -33 -9 -53 -20 -20 -11 -44 -20 -55 -20
-10 0 -22 -4 -25 -10 -3 -5 -17 -10 -30 -10 -13 0 -27 -4 -30 -10 -3 -5 -14
-10 -24 -10 -21 0 -71 -22 -71 -32 0 -5 -13 -8 -30 -8 -16 0 -30 -4 -30 -10 0
-5 -13 -10 -30 -10 -16 0 -30 -4 -30 -10 0 -5 -13 -10 -30 -10 -16 0 -30 -4
-30 -10 0 -5 -13 -10 -30 -10 -16 0 -30 -4 -30 -10 0 -5 -11 -10 -24 -10 -14
0 -28 -4 -31 -10 -3 -5 -17 -10 -30 -10 -13 0 -27 -4 -30 -10 -3 -6 -17 -10
-30 -10 -13 0 -27 -4 -30 -10 -3 -5 -17 -10 -30 -10 -13 0 -27 -4 -30 -10 -3
-5 -17 -10 -30 -10 -13 0 -27 -4 -30 -10 -3 -5 -17 -10 -30 -10 -13 0 -27 -4
-30 -10 -3 -5 -17 -10 -30 -10 -13 0 -27 -4 -30 -10 -3 -5 -22 -10 -41 -10
-19 0 -34 -4 -34 -10 0 -5 -9 -10 -20 -10 -11 0 -28 -4 -38 -9 -28 -14 -84
-29 -135 -37 -26 -3 -50 -10 -53 -15 -3 -5 -20 -9 -39 -9 -19 0 -37 -5 -40
-10 -3 -6 -21 -10 -40 -10 -19 0 -37 -4 -40 -10 -3 -5 -22 -10 -41 -10 -19 0
-34 -4 -34 -10 0 -5 -18 -10 -40 -10 -22 0 -40 -4 -40 -10 0 -5 -18 -10 -40
-10 -22 0 -40 -4 -40 -10 0 -5 -18 -10 -40 -10 -22 0 -40 -4 -40 -10 0 -5 -20
-10 -44 -10 -25 0 -48 -4 -51 -10 -3 -5 -26 -10 -50 -10 -24 0 -47 -4 -50 -10
-3 -5 -26 -10 -51 -10 -24 0 -44 -4 -44 -10 0 -5 -22 -10 -50 -10 -27 0 -50
-4 -50 -10 0 -5 -24 -10 -54 -10 -30 0 -58 -4 -61 -10 -3 -5 -30 -10 -60 -10
-30 0 -57 -4 -60 -10 -3 -5 -35 -10 -70 -10 -35 0 -67 -4 -70 -10 -3 -5 -35
-10 -71 -10 -36 0 -64 -4 -64 -10 0 -6 -31 -10 -74 -10 -41 0 -78 -4 -81 -10
-3 -6 -48 -10 -100 -10 -52 0 -97 -4 -100 -10 -3 -6 -49 -10 -104 -10 -53 0
-101 -4 -106 -9 -15 -15 -260 -21 -1024 -27 -469 -3 -708 -1 -715 6 -6 6 -87
10 -207 10 -121 0 -200 4 -204 10 -4 6 -63 10 -145 10 -82 0 -141 4 -145 10
-4 6 -55 10 -120 10 -65 0 -116 4 -120 10 -3 6 -50 10 -105 10 -55 0 -102 4
-105 10 -3 6 -44 10 -90 10 -46 0 -87 5 -90 10 -3 6 -44 10 -91 10 -49 0 -84
4 -84 10 0 6 -28 10 -64 10 -36 0 -68 5 -71 10 -3 6 -39 10 -80 10 -41 0 -77
4 -80 10 -3 5 -31 10 -61 10 -30 0 -54 5 -54 10 0 6 -30 10 -70 10 -40 0 -70
4 -70 10 0 6 -24 10 -54 10 -30 0 -58 5 -61 10 -3 6 -26 10 -50 10 -24 0 -47
5 -50 10 -3 6 -31 10 -61 10 -30 0 -54 5 -54 10 0 6 -22 10 -50 10 -27 0 -50
5 -50 10 0 6 -20 10 -44 10 -25 0 -48 4 -51 10 -3 5 -26 10 -50 10 -24 0 -47
5 -50 10 -3 6 -26 10 -50 10 -24 0 -47 4 -50 10 -3 6 -22 10 -41 10 -19 0 -34
5 -34 10 0 18 -22 10 -27 -10 -3 -11 -9 -20 -14 -20 -5 0 -9 -9 -9 -20 0 -11
-4 -20 -10 -20 -5 0 -10 -8 -10 -18 0 -10 -9 -24 -20 -32 -11 -8 -20 -22 -20
-32 0 -10 -4 -18 -10 -18 -5 0 -10 -8 -10 -18 0 -10 -9 -24 -20 -32 -11 -8
-20 -22 -20 -32 0 -10 -4 -18 -10 -18 -5 0 -10 -9 -10 -20 0 -11 -4 -20 -8
-20 -5 0 -23 -29 -41 -65 -18 -36 -37 -68 -42 -71 -5 -3 -18 -25 -29 -49 -11
-24 -24 -46 -30 -50 -5 -3 -23 -35 -40 -70 -17 -35 -35 -67 -40 -70 -6 -4 -19
-26 -30 -50 -11 -24 -24 -46 -30 -50 -5 -3 -23 -34 -40 -69 -16 -35 -37 -69
-45 -76 -8 -7 -15 -19 -15 -26 0 -8 -4 -14 -10 -14 -5 0 -10 -9 -10 -20 0 -11
-4 -20 -10 -20 -5 0 -12 -11 -16 -24 -3 -13 -23 -41 -45 -62 -21 -21 -39 -43
-39 -50 0 -7 -13 -24 -30 -37 -16 -14 -30 -31 -30 -37 0 -7 -13 -25 -30 -40
-16 -15 -30 -34 -30 -42 0 -7 -9 -20 -20 -28 -11 -8 -20 -21 -20 -30 0 -9 -9
-22 -20 -30 -11 -8 -20 -22 -20 -32 0 -10 -4 -18 -10 -18 -5 0 -10 -9 -10 -20
0 -11 -4 -20 -10 -20 -5 0 -10 -9 -10 -19 0 -10 -6 -21 -14 -24 -8 -3 -29 -34
-46 -69 -51 -102 -76 -147 -92 -166 -8 -9 -27 -43 -42 -74 -15 -32 -31 -60
-36 -63 -5 -3 -23 -34 -40 -69 -16 -35 -37 -69 -45 -76 -8 -7 -15 -19 -15 -26
0 -8 -4 -14 -10 -14 -5 0 -10 -8 -10 -18 0 -10 -9 -24 -20 -32 -11 -8 -20 -22
-20 -32 0 -10 -4 -18 -10 -18 -5 0 -10 -9 -10 -20 0 -11 -4 -20 -10 -20 -5 0
-10 -8 -10 -18 0 -10 -9 -24 -20 -32 -11 -8 -20 -22 -20 -32 0 -10 -4 -18 -10
-18 -5 0 -10 -9 -10 -20 0 -11 -4 -20 -8 -20 -5 0 -23 -29 -41 -65 -18 -36
-37 -68 -42 -71 -5 -3 -18 -25 -29 -49 -11 -24 -24 -47 -30 -50 -6 -3 -19 -26
-30 -50 -11 -24 -24 -46 -30 -50 -5 -3 -23 -35 -40 -70 -17 -35 -35 -67 -40
-70 -6 -4 -19 -26 -30 -50 -11 -24 -24 -46 -30 -50 -5 -3 -23 -34 -41 -68 -50
-100 -75 -146 -91 -165 -7 -9 -20 -30 -28 -47 -8 -16 -23 -37 -32 -46 -10 -9
-18 -24 -18 -33 0 -9 -4 -16 -10 -16 -5 0 -10 -8 -10 -18 0 -10 -9 -24 -20
-32 -11 -8 -20 -22 -20 -32 0 -10 -4 -18 -10 -18 -5 0 -10 -8 -10 -18 0 -10
-9 -24 -20 -32 -11 -8 -20 -22 -20 -32 0 -10 -4 -18 -10 -18 -5 0 -10 -9 -10
-19 0 -10 -7 -21 -15 -24 -8 -3 -23 -26 -34 -51 -12 -25 -25 -48 -31 -51 -11
-7 -50 -88 -50 -103 0 -5 -7 -15 -15 -22 -9 -7 -25 -33 -35 -56 -11 -24 -24
-46 -30 -49 -6 -3 -19 -26 -30 -50 -11 -24 -24 -47 -30 -50 -6 -3 -19 -25 -30
-49 -10 -23 -26 -49 -35 -56 -8 -7 -15 -19 -15 -26 0 -8 -4 -14 -10 -14 -5 0
-10 -8 -10 -18 0 -10 -9 -24 -20 -32 -11 -8 -20 -22 -20 -32 0 -10 -4 -18 -10
-18 -5 0 -10 -8 -10 -18 0 -10 -9 -24 -20 -32 -11 -8 -20 -22 -20 -32 0 -10
-4 -18 -10 -18 -5 0 -10 -8 -10 -18 0 -10 -9 -24 -20 -32 -11 -8 -20 -22 -20
-32 0 -10 -3 -18 -8 -18 -8 0 -12 -8 -49 -83 -13 -25 -27 -49 -33 -52 -6 -3
-19 -26 -30 -50 -11 -24 -24 -47 -30 -50 -6 -3 -19 -26 -30 -50 -11 -24 -24
-47 -30 -50 -6 -3 -19 -26 -30 -50 -11 -24 -24 -47 -30 -50 -6 -3 -19 -26 -30
-50 -11 -24 -24 -47 -30 -50 -6 -3 -19 -25 -30 -49 -10 -23 -26 -49 -35 -56
-8 -7 -15 -19 -15 -26 0 -8 -4 -14 -10 -14 -5 0 -10 -9 -10 -19 0 -11 -5 -23
-10 -26 -6 -3 -19 -25 -30 -49 -10 -23 -26 -49 -35 -56 -8 -7 -15 -19 -15 -26
0 -8 -4 -14 -10 -14 -5 0 -10 -9 -10 -20 0 -11 -4 -20 -10 -20 -5 0 -10 -8
-10 -18 0 -10 -9 -24 -20 -32 -11 -8 -20 -22 -20 -32 0 -10 -4 -18 -10 -18 -5
0 -10 -9 -10 -20 0 -11 -4 -20 -10 -20 -5 0 -10 -8 -10 -18 0 -10 -9 -24 -20
-32 -11 -8 -20 -22 -20 -31 0 -10 -3 -19 -7 -21 -5 -1 -19 -25 -32 -53 -14
-27 -31 -58 -39 -67 -15 -18 -53 -89 -162 -306 -34 -68 -69 -126 -76 -129 -8
-3 -14 -14 -14 -24 0 -10 -4 -19 -10 -19 -5 0 -10 -9 -10 -20 0 -11 -4 -20
-10 -20 -5 0 -10 -9 -10 -20 0 -11 -4 -20 -10 -20 -5 0 -10 -9 -10 -20 0 -11
-4 -20 -10 -20 -5 0 -10 -9 -10 -20 0 -11 -4 -20 -10 -20 -5 0 -10 -9 -10 -20
0 -11 -4 -20 -10 -20 -5 0 -10 -9 -10 -19 0 -11 -4 -21 -8 -23 -4 -1 -20 -29
-36 -60 -15 -32 -31 -60 -36 -63 -5 -3 -17 -23 -26 -43 -9 -20 -54 -114 -100
-207 -46 -94 -84 -178 -84 -188 0 -9 -4 -17 -10 -17 -5 0 -10 -9 -10 -20 0
-11 -4 -20 -10 -20 -5 0 -10 -9 -10 -20 0 -11 -4 -20 -10 -20 -5 0 -10 -9 -10
-20 0 -11 -4 -20 -10 -20 -5 0 -10 -9 -10 -20 0 -11 -4 -20 -10 -20 -5 0 -10
-9 -10 -20 0 -11 -4 -20 -10 -20 -5 0 -10 -9 -10 -19 0 -11 -3 -21 -7 -23 -11
-4 -73 -128 -73 -143 0 -7 -9 -30 -19 -52 -45 -90 -71 -148 -71 -159 0 -6 -18
-46 -40 -89 -22 -43 -40 -86 -40 -96 0 -11 -4 -19 -10 -19 -5 0 -10 -9 -10
-20 0 -11 -4 -20 -10 -20 -5 0 -10 -9 -10 -20 0 -11 -4 -20 -10 -20 -5 0 -10
-9 -10 -20 0 -11 -4 -20 -10 -20 -5 0 -10 -13 -10 -30 0 -16 -4 -30 -10 -30
-5 0 -10 -9 -10 -20 0 -11 -3 -20 -7 -20 -9 0 -33 -48 -33 -66 0 -7 -14 -38
-30 -69 -17 -31 -30 -63 -30 -71 0 -7 -9 -29 -20 -49 -11 -20 -20 -41 -20 -48
0 -18 -24 -67 -32 -67 -5 0 -8 -11 -8 -25 0 -24 -14 -61 -51 -140 -10 -22 -19
-45 -19 -52 0 -7 -9 -28 -20 -48 -11 -20 -20 -44 -20 -54 0 -10 -9 -26 -20
-36 -11 -10 -20 -23 -20 -28 0 -6 -7 -19 -17 -29 -9 -10 -21 -28 -27 -40 -13
-26 -62 -56 -93 -57 -12 -1 -25 -5 -28 -11 -3 -5 -31 -10 -61 -10 -30 0 -54
-4 -54 -10 0 -6 -113 -10 -319 -10 -203 0 -322 -4 -326 -10 -4 -6 -63 -10
-145 -10 -82 0 -141 -4 -145 -10 -3 -6 -35 -10 -70 -10 -35 0 -67 -4 -70 -10
-3 -5 -26 -10 -50 -10 -24 0 -47 -4 -50 -10 -3 -5 -21 -10 -40 -10 -19 0 -36
-4 -39 -9 -3 -5 -33 -12 -66 -16 -33 -4 -60 -11 -60 -16 0 -5 -9 -9 -20 -9
-11 0 -20 -4 -20 -10 0 -5 -13 -10 -30 -10 -16 0 -30 -4 -30 -10 0 -5 -13 -10
-30 -10 -16 0 -30 -4 -30 -10 0 -5 -9 -10 -20 -10 -11 0 -35 -9 -55 -20 -20
-11 -42 -20 -50 -20 -8 0 -30 -9 -50 -20 -20 -11 -42 -20 -50 -20 -8 0 -30 -9
-50 -20 -20 -11 -44 -20 -55 -20 -11 0 -20 -4 -20 -10 0 -5 -9 -10 -20 -10
-11 0 -20 -4 -20 -10 0 -5 -9 -10 -20 -10 -11 0 -20 -4 -20 -10 0 -5 -9 -10
-20 -10 -11 0 -20 -4 -20 -10 0 -5 -9 -10 -20 -10 -11 0 -20 -4 -20 -10 0 -5
-9 -10 -19 -10 -11 0 -21 -4 -23 -8 -3 -9 -192 -102 -206 -102 -5 0 -15 -7
-22 -15 -7 -8 -37 -27 -69 -41 -31 -15 -64 -34 -73 -42 -33 -28 -112 -62 -142
-62 -20 0 -37 7 -46 20 -8 11 -20 20 -28 20 -7 0 -24 12 -39 26 l-25 25 21 23
c11 12 21 27 21 33 0 5 9 18 20 28 11 10 20 23 20 29 0 7 9 18 20 26 11 8 20
21 20 30 0 9 9 22 20 30 11 8 20 21 20 30 0 9 9 22 20 30 11 8 20 21 20 30 0
9 9 22 20 30 11 8 20 22 20 32 0 10 4 18 8 18 5 0 16 15 25 33 25 47 40 70 60
88 9 9 17 23 17 30 0 8 9 21 20 29 11 8 20 21 20 30 0 9 9 22 20 30 11 8 20
21 20 30 0 9 9 22 20 30 11 8 20 21 20 30 0 9 9 22 20 30 11 8 20 19 20 26 0
6 9 19 20 29 11 10 20 23 20 30 0 6 14 24 30 40 17 16 30 33 30 39 0 5 7 18
17 28 17 19 36 49 52 83 5 12 16 27 25 34 9 7 16 19 16 26 0 6 9 20 20 30 11
10 20 23 20 30 0 7 9 20 20 30 11 10 20 23 20 30 0 7 9 20 20 30 11 10 20 23
20 30 0 7 9 20 20 30 11 10 20 23 20 30 0 7 9 20 20 30 11 10 20 23 20 29 0 7
9 18 20 26 11 8 20 21 20 30 0 9 9 22 20 30 11 8 20 21 20 30 0 9 9 22 20 30
11 8 20 21 20 30 0 9 9 22 20 30 11 8 20 22 20 32 0 10 4 18 8 18 5 0 16 15
25 33 25 47 40 70 60 88 9 9 17 23 17 30 0 8 9 21 20 29 11 8 20 21 20 28 0 8
14 27 30 42 17 15 30 34 30 42 0 7 9 20 20 28 11 8 20 21 20 30 0 9 9 22 20
30 11 8 20 19 20 26 0 6 9 19 20 29 11 10 20 23 20 30 0 7 9 20 20 30 11 10
20 23 20 28 0 6 7 19 17 29 17 19 36 49 52 83 5 12 16 27 25 34 9 7 16 19 16
26 0 6 9 20 20 30 11 10 20 23 20 30 0 7 9 20 20 30 11 10 20 23 20 30 0 7 9
20 20 30 11 10 20 23 20 30 0 7 9 20 20 30 11 10 20 23 20 30 0 7 9 20 20 30
11 10 20 23 20 29 0 7 9 18 20 26 11 8 20 21 20 30 0 9 9 22 20 30 11 8 20 21
20 30 0 9 9 22 20 30 11 8 20 20 20 28 0 7 5 18 10 25 19 23 60 88 60 96 0 4
9 16 20 26 11 10 20 23 20 29 0 7 9 18 20 26 11 8 20 21 20 30 0 9 9 22 20 30
11 8 20 21 20 30 0 9 9 22 20 30 11 8 20 21 20 30 0 9 9 22 20 30 11 8 20 22
20 32 0 10 5 18 10 18 6 0 10 6 10 13 0 8 9 22 20 32 11 10 20 23 20 30 0 7 9
20 20 30 11 10 20 23 20 28 0 6 7 19 17 29 17 19 36 49 52 83 5 12 16 27 25
34 9 7 16 19 16 26 0 6 9 20 20 30 11 10 20 23 20 30 0 7 9 20 20 30 11 10 20
23 20 30 0 7 9 20 20 30 11 10 20 23 20 30 0 7 9 20 20 30 11 10 20 23 20 30
0 7 9 20 20 30 11 10 20 23 20 29 0 7 9 18 20 26 11 8 20 21 20 30 0 9 9 22
20 30 11 8 20 21 20 30 0 9 9 22 20 30 11 8 20 21 20 30 0 9 9 22 20 30 11 8
20 22 20 32 0 10 4 18 8 18 5 0 16 15 25 33 25 47 40 70 60 88 9 9 17 23 17
30 0 8 9 21 20 29 11 8 20 21 20 30 0 9 9 22 20 30 11 8 20 21 20 30 0 9 9 22
20 30 11 8 20 21 20 30 0 9 9 22 20 30 11 8 20 19 20 26 0 6 9 19 20 29 11 10
20 23 20 30 0 7 9 20 20 30 11 10 20 23 20 28 0 6 7 19 17 29 17 19 36 49 52
83 5 12 16 27 25 34 9 7 16 19 16 26 0 6 9 20 20 30 11 10 20 23 20 30 0 7 9
20 20 30 11 10 20 23 20 30 0 7 9 20 20 30 11 10 20 23 20 30 0 7 9 20 20 30
11 10 20 24 20 30 0 7 7 18 15 25 9 7 23 29 32 49 9 20 25 43 35 52 10 9 18
23 18 30 0 8 9 21 20 29 11 8 20 21 20 30 0 9 9 22 20 30 11 8 20 22 20 32 0
10 4 18 9 18 5 0 14 14 21 30 7 17 16 30 20 30 5 0 13 14 19 30 5 17 17 33 26
36 8 3 15 14 15 23 0 9 9 23 20 31 11 8 20 21 20 30 0 9 9 22 20 30 11 8 20
21 20 30 0 9 9 22 20 30 11 8 20 21 20 30 0 9 9 22 20 30 11 8 20 22 20 31 0
9 7 19 15 22 8 3 23 26 34 50 11 24 27 50 36 57 8 7 15 17 15 23 0 6 7 19 17
29 17 19 36 49 52 83 5 12 16 27 25 34 9 7 16 19 16 26 0 6 9 20 20 30 11 10
20 24 20 30 0 7 7 18 15 25 9 7 25 32 35 55 10 23 26 48 35 55 8 7 15 18 15
25 0 6 9 20 20 30 11 10 20 23 20 29 0 7 9 18 20 26 11 8 20 21 20 30 0 9 9
22 20 30 11 8 20 21 20 30 0 9 9 22 20 30 11 8 20 21 20 30 0 9 9 22 20 30 11
8 20 22 20 32 0 10 5 18 10 18 6 0 10 7 10 15 0 9 4 21 10 28 32 40 57 75 69
99 8 16 18 28 23 28 4 0 8 8 8 18 0 10 9 24 20 32 11 8 20 21 20 30 0 9 9 22
20 30 11 8 20 22 20 32 0 10 5 18 10 18 6 0 10 6 10 13 0 8 9 22 20 32 11 10
20 23 20 30 0 7 9 20 20 30 11 10 20 23 20 30 0 7 9 20 20 30 11 10 20 24 20
30 0 7 7 18 15 25 9 7 23 29 32 49 9 20 23 44 31 54 17 19 36 51 51 82 5 12
16 27 25 34 9 7 16 19 16 26 0 7 7 18 15 25 9 7 25 32 35 55 10 23 26 48 35
55 8 7 15 18 15 24 0 6 9 18 20 26 11 8 20 21 20 30 0 9 9 22 20 30 11 8 20
21 20 30 0 9 9 22 20 30 11 8 20 22 20 32 0 10 5 18 10 18 6 0 10 8 10 18 0
10 9 24 20 32 11 8 20 21 20 30 0 9 9 22 20 30 11 8 20 22 20 31 0 9 7 19 15
23 8 3 15 12 15 19 0 8 7 20 15 27 9 7 25 32 35 55 10 23 26 48 35 55 8 7 15
18 15 25 0 6 9 20 20 30 11 10 20 24 20 30 0 7 7 18 15 25 9 7 25 32 35 55 10
23 26 48 35 55 8 7 15 18 15 25 0 6 9 20 20 30 11 10 20 24 20 30 0 7 7 18 15
25 9 7 23 29 32 49 9 20 23 44 31 54 17 19 36 51 51 82 5 12 16 27 25 34 9 7
16 19 16 26 0 7 7 18 15 25 22 18 45 70 45 102 0 15 5 28 10 28 6 0 10 8 10
18 0 10 9 24 20 32 11 8 20 22 20 32 0 10 5 18 10 18 6 0 10 9 10 20 0 11 5
20 10 20 6 0 10 8 10 18 0 10 9 24 20 32 11 8 20 22 20 32 0 10 4 18 8 18 5 0
15 16 22 35 8 20 20 41 27 47 7 6 27 39 43 73 16 34 37 68 45 75 8 7 15 17 15
22 0 15 39 96 50 103 5 3 23 34 40 69 16 35 36 68 43 74 7 6 19 27 27 47 7 19
17 35 22 35 4 0 8 8 8 18 0 10 9 24 20 32 11 8 20 22 20 32 0 10 5 18 10 18 6
0 10 9 10 20 0 11 5 20 10 20 6 0 10 8 10 18 0 10 9 24 20 32 11 8 20 22 20
32 0 10 5 18 10 18 6 0 10 9 10 20 0 11 5 20 10 20 6 0 10 9 10 19 0 10 6 21
14 24 15 6 46 62 46 84 0 7 -9 13 -20 13 -11 0 -35 9 -55 20 -20 11 -44 20
-55 20 -10 0 -22 5 -25 10 -3 6 -14 10 -25 10 -10 0 -44 14 -75 30 -31 17 -62
30 -69 30 -18 0 -66 24 -66 33 0 4 -13 7 -30 7 -16 0 -30 5 -30 10 0 6 -9 10
-20 10 -11 0 -20 5 -20 10 0 6 -9 10 -20 10 -11 0 -20 5 -20 10 0 6 -9 10 -20
10 -11 0 -20 5 -20 10 0 6 -13 10 -30 10 -16 0 -30 5 -30 10 0 6 -9 10 -19 10
-11 0 -21 3 -23 8 -4 10 -210 112 -227 112 -19 0 -216 97 -230 113 -5 7 -26
19 -46 27 -19 7 -35 17 -35 22 0 4 -9 8 -20 8 -11 0 -20 5 -20 10 0 6 -9 10
-20 10 -11 0 -20 5 -20 10 0 6 -9 10 -20 10 -11 0 -20 5 -20 10 0 6 -9 10 -20
10 -11 0 -20 5 -20 10 0 6 -8 10 -18 10 -10 0 -24 9 -32 20 -8 11 -22 20 -32
20 -10 0 -18 5 -18 10 0 6 -9 10 -20 10 -11 0 -20 5 -20 10 0 6 -6 10 -14 10
-7 0 -19 7 -26 15 -7 9 -32 25 -54 36 -75 37 -126 66 -144 81 -9 8 -34 22 -54
32 -20 9 -40 21 -43 26 -3 6 -25 19 -49 30 -23 10 -49 26 -56 35 -7 8 -18 15
-25 15 -6 0 -20 9 -30 20 -10 11 -23 20 -30 20 -7 0 -20 9 -30 20 -10 11 -23
20 -29 20 -7 0 -18 9 -26 20 -8 11 -21 20 -30 20 -9 0 -22 9 -30 20 -8 11 -21
20 -30 20 -9 0 -22 9 -30 20 -8 11 -22 20 -32 20 -10 0 -18 4 -18 9 0 5 -9 12
-19 16 -11 3 -34 19 -53 35 -18 16 -39 30 -45 30 -7 0 -18 9 -25 20 -7 11 -19
20 -26 20 -8 0 -27 14 -42 30 -15 17 -33 30 -40 30 -7 0 -25 14 -40 30 -15 17
-34 30 -42 30 -7 0 -20 9 -28 20 -8 11 -21 20 -28 20 -7 0 -31 18 -52 40 -21
22 -42 40 -47 40 -5 0 -22 14 -38 30 -16 17 -34 30 -40 30 -6 0 -26 16 -45 35
-19 19 -39 35 -45 35 -6 0 -29 18 -50 40 -21 22 -44 40 -50 40 -6 0 -33 22
-60 50 -27 28 -54 50 -60 50 -6 0 -33 23 -60 50 -27 28 -54 50 -60 50 -6 0
-40 29 -75 65 -35 36 -69 65 -75 65 -6 0 -51 41 -100 90 -49 50 -94 90 -100
90 -5 0 -100 90 -211 201 -110 110 -211 206 -225 212 -13 7 -29 23 -36 36 -6
14 -104 117 -217 230 -113 114 -206 211 -206 216 0 6 -40 51 -90 100 -49 49
-90 94 -90 100 0 6 -31 42 -70 80 -38 38 -70 74 -70 80 0 6 -25 35 -55 65 -30
30 -55 59 -55 65 0 6 -27 37 -60 70 -33 33 -60 64 -60 70 0 6 -22 33 -50 60
-27 27 -50 54 -50 60 0 6 -22 33 -50 60 -27 27 -50 54 -50 60 0 6 -16 26 -35
45 -19 19 -35 39 -35 46 0 6 -18 28 -40 48 -22 20 -40 41 -40 47 0 6 -18 28
-40 49 -22 21 -40 44 -40 50 0 6 -18 29 -40 50 -22 21 -40 44 -40 50 0 6 -18
29 -40 50 -22 21 -40 44 -40 50 0 6 -13 23 -30 37 -16 13 -30 31 -30 39 0 7
-16 29 -35 48 -19 20 -35 40 -35 47 0 6 -13 24 -30 39 -17 15 -30 33 -30 40 0
7 -13 25 -30 40 -17 15 -30 33 -30 40 0 7 -13 25 -30 40 -17 15 -30 32 -30 37
0 5 -13 22 -30 38 -16 16 -30 34 -30 40 0 6 -13 24 -30 40 -16 16 -30 34 -30
40 0 6 -13 24 -30 40 -16 16 -30 34 -30 40 0 6 -11 22 -25 35 -14 13 -25 29
-25 35 0 6 -13 24 -30 40 -16 16 -30 34 -30 40 0 6 -13 24 -30 40 -16 16 -30
34 -30 40 0 7 -9 20 -20 30 -11 10 -20 23 -20 30 0 6 -14 24 -30 40 -16 16
-30 34 -30 40 0 7 -9 20 -20 30 -11 10 -20 23 -20 30 0 6 -13 24 -30 40 -16
16 -30 33 -30 39 0 5 -12 22 -26 37 -27 28 -45 55 -63 97 -6 12 -18 25 -26 28
-8 4 -15 13 -15 21 0 8 -13 28 -30 43 -16 15 -30 34 -30 42 0 7 -9 20 -20 28
-11 8 -20 21 -20 30 0 9 -9 22 -20 30 -11 8 -20 21 -20 28 0 8 -14 27 -30 42
-17 15 -30 34 -30 42 0 7 -9 20 -20 28 -11 8 -20 19 -20 26 0 6 -9 19 -20 29
-11 10 -20 23 -20 30 0 7 -9 20 -20 30 -11 10 -20 24 -20 31 0 7 -11 24 -25
38 -14 14 -25 31 -25 38 0 8 -9 20 -20 28 -11 8 -20 19 -20 26 0 6 -9 19 -20
29 -11 10 -20 23 -20 30 0 7 -9 20 -20 30 -11 10 -20 23 -20 30 0 7 -9 20 -20
30 -11 10 -20 23 -20 30 0 7 -9 20 -20 30 -11 10 -20 23 -20 30 0 7 -9 20 -20
30 -11 10 -20 23 -20 30 0 7 -9 20 -20 30 -11 10 -20 23 -20 30 0 7 -9 20 -20
30 -11 10 -20 23 -20 28 0 6 -7 19 -17 29 -17 19 -36 49 -52 83 -5 12 -16 27
-25 34 -9 7 -16 19 -16 26 0 6 -9 20 -20 30 -11 10 -20 23 -20 29 0 7 -9 18
-20 26 -11 8 -20 21 -20 30 0 9 -9 22 -20 30 -11 8 -20 21 -20 30 0 9 -9 22
-20 30 -11 8 -20 21 -20 30 0 9 -9 22 -20 30 -11 8 -20 22 -20 32 0 10 -4 18
-10 18 -5 0 -10 8 -10 18 0 10 -9 24 -20 32 -11 8 -20 20 -20 26 0 6 -7 17
-15 24 -9 7 -25 32 -35 55 -10 23 -26 47 -34 54 -8 7 -18 25 -21 41 -3 15 -15
36 -26 46 -10 9 -19 23 -19 29 0 7 -7 18 -15 25 -9 7 -25 33 -35 56 -11 24
-24 46 -30 49 -6 3 -19 25 -30 49 -10 23 -26 49 -35 56 -8 7 -15 18 -15 25 0
7 -7 18 -15 25 -9 7 -25 33 -35 56 -11 24 -24 46 -30 49 -6 3 -19 26 -30 50
-11 24 -24 47 -30 50 -6 3 -20 27 -33 52 -37 75 -41 83 -49 83 -5 0 -8 8 -8
18 0 10 -9 24 -20 32 -11 8 -20 22 -20 32 0 10 -4 18 -10 18 -5 0 -10 8 -10
18 0 10 -9 24 -20 32 -11 8 -20 22 -20 32 0 10 -4 18 -10 18 -5 0 -10 8 -10
18 0 10 -9 24 -20 32 -11 8 -20 22 -20 32 0 10 -4 18 -10 18 -5 0 -10 6 -10
14 0 7 -7 19 -15 26 -9 7 -25 33 -35 56 -11 24 -24 46 -30 49 -6 3 -19 26 -30
50 -11 24 -24 47 -30 50 -6 3 -19 25 -31 48 -37 75 -66 127 -81 145 -8 9 -22
33 -31 53 -9 20 -23 42 -32 49 -8 7 -15 19 -15 26 0 8 -4 14 -10 14 -5 0 -10
8 -10 18 0 10 -9 24 -20 32 -11 8 -20 22 -20 32 0 10 -4 18 -10 18 -5 0 -10 8
-10 18 0 10 -9 24 -20 32 -11 8 -20 22 -20 32 0 10 -4 18 -10 18 -5 0 -10 7
-10 16 0 9 -8 24 -18 33 -10 9 -26 33 -35 53 -10 20 -22 40 -27 43 -6 3 -19
26 -30 50 -11 24 -24 47 -30 50 -5 3 -10 15 -10 26 0 10 -4 19 -10 19 -5 0
-10 6 -10 14 0 7 -7 19 -15 26 -8 7 -29 41 -45 76 -17 35 -35 66 -40 69 -6 4
-19 26 -30 50 -11 24 -24 47 -30 50 -6 3 -19 26 -30 50 -11 24 -24 47 -30 50
-6 3 -19 26 -30 50 -11 24 -24 47 -30 50 -6 3 -19 26 -30 50 -11 24 -24 46
-29 50 -6 3 -20 26 -32 50 -12 25 -26 45 -31 45 -4 0 -8 9 -8 20 0 11 -4 20
-10 20 -5 0 -10 8 -10 18 0 10 -9 24 -20 32 -11 8 -20 22 -20 32 0 10 -4 18
-10 18 -5 0 -10 8 -10 18 0 10 -9 24 -20 32 -11 8 -20 22 -20 32 0 10 -4 18
-10 18 -5 0 -10 7 -10 16 0 9 -8 24 -18 33 -10 9 -26 33 -35 53 -10 20 -22 40
-27 43 -6 3 -19 26 -30 50 -11 24 -24 47 -30 50 -5 3 -17 23 -26 43 -10 20
-24 45 -32 54 -15 18 -44 70 -81 145 -12 23 -25 45 -31 48 -6 3 -19 26 -31 51
-11 25 -26 48 -34 51 -8 3 -15 14 -15 24 0 10 -4 19 -10 19 -5 0 -10 8 -10 18
0 10 -9 24 -20 32 -11 8 -20 22 -20 32 0 10 -4 18 -10 18 -5 0 -10 8 -10 18 0
10 -9 24 -20 32 -11 8 -20 22 -20 32 0 10 -4 18 -10 18 -5 0 -10 9 -10 20 0
11 -4 20 -10 20 -5 0 -10 6 -10 14 0 7 -7 19 -15 26 -9 7 -25 32 -35 55 -10
23 -26 47 -34 54 -8 7 -18 25 -21 41 -3 16 -13 34 -21 41 -8 7 -24 32 -34 55
-11 24 -24 45 -30 49 -5 3 -23 35 -40 70 -17 35 -35 67 -40 70 -6 4 -19 26
-30 50 -11 24 -24 46 -30 50 -5 3 -23 35 -40 70 -17 35 -35 67 -40 70 -6 4
-19 26 -30 50 -11 24 -24 46 -29 50 -6 3 -20 26 -32 50 -12 25 -26 45 -31 45
-4 0 -8 9 -8 20 0 11 -4 20 -10 20 -5 0 -10 9 -10 20 0 11 -4 20 -10 20 -5 0
-10 8 -10 18 0 10 -9 24 -20 32 -11 8 -20 22 -20 32 0 10 -4 18 -10 18 -5 0
-10 9 -10 20 0 11 -4 20 -10 20 -5 0 -10 7 -10 16 0 9 -8 24 -18 33 -10 9 -30
42 -46 73 -15 32 -32 60 -37 63 -5 4 -18 26 -29 50 -11 24 -24 46 -30 50 -5 3
-23 35 -40 70 -17 35 -35 67 -40 70 -11 7 -50 88 -50 103 0 5 -8 16 -18 25
-10 9 -24 32 -32 52 -8 19 -17 35 -22 35 -4 0 -8 8 -8 18 0 10 -9 24 -20 32
-11 8 -20 22 -20 32 0 10 -4 18 -10 18 -5 0 -10 8 -10 18 0 10 -9 24 -20 32
-11 8 -20 22 -20 32 0 10 -4 18 -10 18 -5 0 -10 9 -10 20 0 11 -4 20 -10 20
-5 0 -10 9 -10 19 0 10 -7 21 -15 24 -8 3 -23 26 -34 51 -12 25 -25 47 -31 51
-5 3 -23 34 -40 69 -16 35 -36 69 -44 75 -8 7 -18 25 -21 41 -3 16 -13 34 -21
41 -8 6 -28 40 -44 75 -17 35 -35 66 -40 69 -6 4 -19 25 -30 49 -10 23 -26 49
-35 56 -8 7 -15 19 -15 26 0 8 -4 14 -10 14 -5 0 -10 8 -10 18 0 10 -9 24 -20
32 -11 8 -20 22 -20 32 0 10 -4 18 -10 18 -5 0 -10 8 -10 18 0 10 -9 24 -20
32 -11 8 -20 22 -20 32 0 10 -4 18 -10 18 -5 0 -10 8 -10 18 0 9 -9 23 -20 30
-16 10 -20 23 -20 72 0 63 9 87 49 133 l25 27 308 0 c199 0 308 4 308 10 0 6
85 10 235 10 150 0 235 4 235 10 0 6 58 10 154 10 93 0 157 4 161 10 4 6 57
10 125 10 68 0 121 4 125 10 3 6 48 10 100 10 52 0 97 4 100 10 3 6 46 10 95
10 49 0 92 5 95 10 3 6 39 10 80 10 41 0 76 4 79 9 3 4 69 12 146 16 77 4 140
11 140 16 0 5 29 9 64 9 36 0 68 5 71 10 3 6 30 10 60 10 30 0 57 5 60 10 3 6
30 10 60 10 30 0 57 5 60 10 3 6 31 10 61 10 30 0 54 5 54 10 0 6 27 10 60 10
33 0 60 4 60 10 0 6 20 10 44 10 25 0 48 5 51 10 3 6 26 10 50 10 24 0 47 5
50 10 3 6 26 10 51 10 24 0 44 5 44 10 0 6 18 10 40 10 22 0 40 5 40 10 0 6
23 10 50 10 28 0 50 5 50 10 0 6 15 10 34 10 19 0 38 5 41 10 3 6 21 10 40 10
19 0 37 5 40 10 3 6 21 10 40 10 19 0 37 5 40 10 3 6 21 10 40 10 19 0 37 5
40 10 3 6 22 10 41 10 19 0 34 5 34 10 0 6 18 10 40 10 22 0 40 5 40 10 0 6
11 10 24 10 14 0 28 5 31 10 3 6 21 10 40 10 19 0 37 5 40 10 3 6 17 10 30 10
13 0 26 4 30 10 3 5 33 12 66 16 32 4 62 11 65 15 3 5 16 9 29 9 13 0 27 5 30
10 3 6 17 10 30 10 13 0 27 5 30 10 3 6 17 10 31 10 13 0 24 5 24 10 0 6 14
10 30 10 17 0 30 5 30 10 0 6 14 10 30 10 17 0 30 5 30 10 0 6 9 10 20 10 11
0 20 5 20 10 0 6 14 10 30 10 17 0 30 5 30 10 0 6 9 10 20 10 11 0 35 9 55 20
20 11 44 20 55 20 10 0 22 5 25 10 3 6 15 10 25 10 11 0 35 9 55 20 20 11 42
20 49 20 8 0 40 14 71 30 31 17 63 30 70 30 7 0 47 18 87 39 41 22 91 43 111
46 20 4 37 11 37 16 0 5 9 9 20 9 11 0 20 5 20 10 0 6 9 10 19 10 11 0 21 4
23 8 2 4 65 38 141 76 75 37 139 72 142 77 3 4 44 26 90 49 46 23 87 45 90 51
4 5 26 18 50 29 24 11 46 24 50 29 3 6 26 20 50 32 25 12 45 26 45 31 0 4 8 8
18 8 10 0 24 9 32 20 8 11 21 20 30 20 9 0 22 9 30 20 8 11 21 20 30 20 9 0
22 9 30 20 8 11 21 20 30 20 9 0 22 9 30 20 8 11 21 20 28 20 8 0 27 14 42 30
15 17 32 30 37 30 5 0 22 14 38 30 16 17 34 30 40 30 6 0 24 14 40 30 16 17
34 30 40 30 6 0 31 20 55 45 24 25 49 45 55 45 6 0 42 32 80 70 38 39 74 70
80 70 13 0 315 302 315 315 0 6 29 40 65 75 36 35 65 69 65 75 0 6 23 33 50
60 28 27 50 54 50 60 0 6 14 24 30 40 17 16 30 33 30 38 0 5 14 22 30 37 17
15 30 34 30 42 0 7 9 20 20 28 11 8 20 21 20 30 0 9 9 22 20 30 11 8 20 21 20
30 0 9 9 22 20 30 11 8 20 20 20 28 0 7 5 18 10 25 21 25 60 88 60 97 0 6 5
10 10 10 6 0 10 8 10 18 0 10 9 24 20 32 11 8 20 22 20 32 0 10 5 18 10 18 6
0 10 9 10 20 0 11 5 20 10 20 6 0 10 7 10 16 0 9 8 24 18 33 19 17 122 218
122 237 0 7 14 38 30 69 17 31 30 66 30 76 0 10 5 19 10 19 6 0 10 9 10 20 0
11 5 20 10 20 6 0 10 11 10 25 0 22 16 68 41 117 5 10 9 27 9 37 0 11 5 23 10
26 6 3 10 17 10 30 0 13 5 27 10 30 5 3 10 17 10 30 0 13 5 27 10 30 6 3 10
21 10 40 0 19 5 37 10 40 6 3 10 17 10 30 0 13 5 27 10 30 6 3 10 21 10 40 0
19 5 37 10 40 6 3 10 22 10 41 0 19 5 34 10 34 6 0 10 23 10 50 0 28 5 50 10
50 6 0 10 23 10 50 0 28 5 50 10 50 6 0 10 24 10 54 0 30 5 58 10 61 6 3 10
30 10 60 0 30 5 57 10 60 6 3 10 44 10 91 0 49 4 84 10 84 6 0 10 45 10 114 0
66 4 117 10 121 6 4 10 102 10 261 0 163 -4 254 -10 254 -6 0 -10 37 -10 90 0
53 -4 90 -10 90 -6 0 -10 28 -10 64 0 36 -4 68 -10 71 -5 3 -10 26 -10 50 0
24 -4 47 -10 50 -5 3 -10 22 -10 41 0 19 -4 34 -10 34 -5 0 -10 18 -10 40 0
22 -4 40 -10 40 -5 0 -10 18 -10 40 0 22 -4 40 -10 40 -5 0 -10 11 -10 24 0
14 -4 28 -10 31 -5 3 -10 17 -10 30 0 13 -4 27 -10 30 -5 3 -10 19 -10 35 0
16 -9 45 -20 65 -11 20 -20 42 -20 50 0 8 -9 30 -20 50 -11 20 -20 42 -20 49
0 8 -9 31 -19 53 -11 21 -28 56 -37 78 -10 22 -26 47 -36 56 -10 9 -18 24 -18
33 0 9 -4 16 -10 16 -5 0 -10 8 -10 18 0 10 -9 24 -20 32 -11 8 -20 21 -20 30
0 9 -9 22 -20 30 -11 8 -20 21 -20 30 0 9 -9 22 -20 30 -11 8 -20 21 -20 30 0
8 -18 30 -40 49 -22 19 -40 40 -40 45 0 15 -315 336 -329 336 -6 0 -28 16 -48
35 -20 19 -42 35 -48 35 -6 0 -24 14 -40 30 -16 17 -34 30 -40 30 -6 0 -17 9
-25 20 -8 11 -21 20 -30 20 -9 0 -22 9 -30 20 -8 11 -21 20 -30 20 -9 0 -22 9
-30 20 -8 11 -22 20 -32 20 -10 0 -18 5 -18 10 0 6 -8 10 -18 10 -10 0 -24 9
-32 20 -8 11 -22 20 -31 20 -10 0 -19 4 -21 8 -1 4 -29 20 -60 36 -32 15 -60
32 -63 37 -4 5 -27 18 -53 29 -26 12 -55 25 -64 30 -10 6 -24 10 -31 10 -8 0
-49 18 -92 40 -43 22 -84 40 -91 40 -7 0 -29 9 -49 20 -20 11 -44 20 -55 20
-11 0 -20 5 -20 10 0 6 -9 10 -20 10 -11 0 -20 5 -20 10 0 6 -13 10 -30 10
-16 0 -30 5 -30 10 0 6 -13 10 -30 10 -16 0 -30 5 -30 10 0 6 -11 10 -24 10
-14 0 -28 5 -31 10 -3 6 -17 10 -30 10 -13 0 -27 5 -30 10 -3 6 -17 10 -30 10
-13 0 -27 5 -30 10 -3 6 -17 10 -30 10 -13 0 -27 5 -30 10 -3 6 -21 10 -40 10
-19 0 -37 5 -40 10 -3 6 -22 10 -41 10 -19 0 -34 5 -34 10 0 6 -22 10 -50 10
-27 0 -50 5 -50 10 0 6 -20 10 -44 10 -25 0 -48 5 -51 10 -3 6 -25 10 -49 10
-23 0 -46 3 -50 8 -8 7 -201 28 -351 38 -44 3 -84 10 -89 15 -6 5 -70 9 -142
9 -78 0 -135 4 -139 10 -8 13 -747 14 -760 1 -6 -5 -46 -12 -90 -15 -116 -7
-189 -17 -200 -26 -5 -4 -45 -11 -87 -15 -43 -4 -80 -11 -84 -16 -3 -5 -20 -9
-39 -9 -19 0 -37 -4 -40 -10 -3 -5 -14 -10 -24 -10 -21 0 -71 -22 -71 -32 0
-5 -13 -8 -30 -8 -16 0 -30 -4 -30 -10 0 -5 -9 -10 -20 -10 -11 0 -20 -4 -20
-10 0 -5 -9 -10 -20 -10 -11 0 -20 -4 -20 -10 0 -5 -8 -10 -18 -10 -10 0 -24
-9 -32 -20 -8 -11 -21 -20 -30 -20 -9 0 -22 -9 -30 -20 -8 -11 -21 -20 -28
-20 -8 0 -23 -12 -34 -26 -12 -14 -29 -29 -38 -32 -24 -9 -220 -198 -220 -212
0 -6 -18 -29 -40 -50 -22 -21 -40 -44 -40 -50 0 -7 -13 -24 -29 -39 -15 -14
-35 -40 -43 -56 -9 -17 -25 -39 -37 -49 -12 -11 -21 -23 -21 -29 0 -5 -13 -22
-30 -37 -16 -15 -30 -33 -30 -40 0 -7 -13 -25 -30 -40 -16 -15 -30 -33 -30
-40 0 -7 -13 -25 -30 -40 -16 -15 -30 -34 -30 -42 0 -7 -9 -20 -20 -28 -11 -8
-20 -21 -20 -28 0 -8 -13 -27 -30 -42 -16 -15 -30 -32 -30 -37 0 -6 -9 -18
-20 -28 -11 -10 -20 -23 -20 -30 0 -6 -11 -22 -25 -35 -14 -13 -25 -29 -25
-35 0 -7 -9 -20 -20 -30 -11 -10 -20 -23 -20 -30 0 -6 -13 -24 -30 -40 -16
-16 -30 -34 -30 -40 0 -7 -9 -20 -20 -30 -11 -10 -20 -23 -20 -30 0 -7 -9 -20
-20 -30 -11 -10 -20 -23 -20 -30 0 -7 -9 -20 -20 -30 -11 -10 -20 -23 -20 -30
0 -7 -9 -20 -20 -30 -11 -10 -20 -23 -20 -30 0 -7 -9 -20 -20 -30 -11 -10 -20
-23 -20 -30 0 -7 -9 -20 -20 -30 -11 -10 -20 -23 -20 -30 0 -7 -9 -20 -20 -30
-11 -10 -20 -23 -20 -30 0 -6 -11 -22 -25 -35 -14 -13 -25 -29 -25 -36 0 -6
-7 -17 -15 -24 -9 -7 -25 -33 -36 -57 -11 -24 -26 -47 -34 -50 -8 -3 -15 -13
-15 -22 0 -9 -9 -23 -20 -31 -11 -8 -20 -21 -20 -30 0 -9 -9 -22 -20 -30 -11
-8 -20 -21 -20 -30 0 -9 -9 -22 -20 -30 -11 -8 -20 -21 -20 -30 0 -9 -9 -22
-20 -30 -11 -8 -20 -21 -20 -30 0 -9 -9 -22 -20 -30 -11 -8 -20 -20 -20 -26 0
-6 -7 -18 -16 -25 -9 -7 -20 -22 -25 -34 -15 -31 -34 -63 -51 -82 -8 -10 -22
-34 -31 -54 -9 -20 -23 -42 -32 -49 -8 -7 -15 -18 -15 -25 0 -6 -9 -20 -20
-30 -11 -10 -20 -23 -20 -30 0 -7 -9 -20 -20 -30 -11 -10 -20 -24 -20 -30 0
-7 -7 -18 -15 -25 -9 -7 -25 -32 -35 -55 -10 -23 -26 -48 -35 -55 -8 -7 -15
-18 -15 -25 0 -6 -9 -20 -20 -30 -11 -10 -20 -23 -20 -30 0 -7 -9 -20 -20 -30
-11 -10 -20 -24 -20 -32 0 -7 -4 -13 -10 -13 -5 0 -10 -7 -10 -15 0 -9 -5 -21
-10 -28 -20 -23 -60 -88 -60 -96 0 -5 -7 -14 -15 -21 -9 -7 -23 -29 -32 -49
-9 -20 -25 -43 -35 -52 -10 -9 -18 -23 -18 -30 0 -8 -9 -21 -20 -29 -11 -8
-20 -22 -20 -32 0 -10 -4 -18 -10 -18 -5 0 -10 -8 -10 -18 0 -10 -9 -24 -20
-32 -11 -8 -20 -21 -20 -30 0 -9 -9 -22 -20 -30 -11 -8 -20 -22 -20 -32 0 -10
-4 -18 -10 -18 -5 0 -10 -6 -10 -13 0 -8 -9 -22 -20 -32 -11 -10 -20 -24 -20
-30 0 -7 -7 -18 -15 -25 -9 -7 -25 -32 -36 -54 -28 -57 -43 -83 -61 -103 -8
-10 -22 -35 -32 -55 -9 -20 -21 -40 -26 -43 -6 -3 -19 -25 -30 -49 -10 -23
-26 -49 -35 -56 -8 -7 -15 -18 -15 -25 0 -6 -9 -20 -20 -30 -11 -10 -20 -24
-20 -32 0 -7 -4 -13 -10 -13 -5 0 -10 -8 -10 -18 0 -10 -9 -24 -20 -32 -11 -8
-20 -22 -20 -32 0 -10 -4 -18 -10 -18 -5 0 -10 -8 -10 -18 0 -10 -9 -24 -20
-32 -11 -8 -20 -22 -20 -32 0 -10 -4 -18 -10 -18 -5 0 -10 -8 -10 -18 0 -10
-9 -24 -20 -32 -11 -8 -20 -22 -20 -32 0 -10 -4 -18 -8 -18 -5 0 -19 -20 -31
-45 -12 -24 -26 -47 -32 -50 -5 -4 -18 -26 -29 -50 -11 -24 -26 -49 -33 -57
-7 -7 -21 -30 -30 -50 -10 -20 -22 -40 -27 -43 -6 -3 -19 -26 -30 -50 -11 -24
-24 -47 -30 -50 -6 -3 -19 -26 -30 -50 -11 -24 -24 -47 -30 -50 -5 -3 -17 -23
-26 -43 -10 -20 -24 -45 -32 -54 -15 -18 -44 -70 -81 -145 -12 -23 -25 -45
-31 -48 -6 -3 -19 -25 -30 -49 -10 -23 -26 -49 -35 -56 -8 -7 -15 -19 -15 -26
0 -8 -4 -14 -10 -14 -5 0 -10 -8 -10 -18 0 -10 -9 -24 -20 -32 -11 -8 -20 -22
-20 -32 0 -10 -4 -18 -10 -18 -5 0 -10 -8 -10 -18 0 -10 -9 -24 -20 -32 -11
-8 -20 -22 -20 -32 0 -10 -4 -18 -10 -18 -5 0 -10 -7 -10 -16 0 -9 -8 -24 -18
-33 -9 -9 -24 -29 -32 -46 -8 -16 -21 -38 -28 -47 -15 -18 -45 -72 -81 -145
-12 -23 -25 -45 -31 -48 -6 -3 -19 -26 -30 -50 -11 -24 -24 -46 -30 -50 -5 -3
-23 -35 -40 -70 -17 -35 -35 -67 -40 -70 -5 -3 -17 -23 -27 -43 -9 -20 -25
-44 -35 -53 -10 -9 -18 -24 -18 -33 0 -9 -4 -16 -10 -16 -5 0 -10 -8 -10 -18
0 -10 -9 -24 -20 -32 -11 -8 -20 -22 -20 -32 0 -10 -4 -18 -10 -18 -5 0 -10
-7 -10 -16 0 -9 -8 -24 -18 -33 -11 -9 -22 -28 -25 -42 -4 -14 -18 -41 -31
-60 -14 -19 -34 -53 -46 -76 -11 -23 -24 -45 -30 -48 -6 -3 -19 -26 -30 -50
-11 -24 -24 -46 -30 -50 -5 -3 -23 -35 -40 -70 -17 -35 -35 -67 -40 -70 -6 -4
-19 -26 -30 -50 -11 -24 -24 -47 -30 -50 -6 -3 -19 -26 -30 -50 -11 -24 -24
-47 -30 -50 -5 -3 -23 -34 -40 -68 -45 -92 -75 -145 -92 -165 -8 -9 -21 -32
-29 -49 -8 -18 -17 -33 -21 -33 -5 0 -8 -8 -8 -18 0 -10 -9 -24 -20 -32 -11
-8 -20 -22 -20 -32 0 -10 -4 -18 -10 -18 -5 0 -10 -8 -10 -18 0 -10 -9 -24
-20 -32 -11 -8 -20 -22 -20 -32 0 -10 -4 -18 -10 -18 -5 0 -10 -9 -10 -20 0
-11 -4 -20 -10 -20 -5 0 -10 -6 -10 -14 0 -7 -7 -19 -15 -26 -9 -7 -25 -33
-35 -56 -11 -24 -24 -46 -30 -49 -11 -7 -50 -88 -50 -103 0 -5 -7 -15 -15 -22
-9 -7 -25 -33 -35 -56 -11 -24 -24 -45 -30 -49 -5 -3 -23 -34 -40 -69 -16 -35
-36 -68 -43 -74 -7 -6 -19 -27 -27 -47 -7 -19 -17 -35 -22 -35 -4 0 -8 -8 -8
-18 0 -10 -9 -24 -20 -32 -11 -8 -20 -22 -20 -32 0 -10 -4 -18 -10 -18 -5 0
-10 -8 -10 -18 0 -10 -9 -24 -20 -32 -11 -8 -20 -22 -20 -32 0 -10 -4 -18 -10
-18 -5 0 -10 -9 -10 -20 0 -11 -4 -20 -10 -20 -5 0 -10 -8 -10 -18 0 -10 -9
-24 -20 -32 -11 -8 -20 -18 -20 -23 0 -15 -40 -96 -50 -102 -6 -3 -19 -26 -30
-50 -11 -24 -24 -46 -30 -50 -5 -3 -23 -35 -40 -70 -17 -35 -35 -67 -40 -70
-5 -3 -23 -35 -40 -70 -17 -35 -35 -67 -40 -70 -5 -3 -21 -31 -36 -63 -16 -31
-36 -64 -46 -73 -10 -9 -18 -24 -18 -33 0 -9 -4 -16 -10 -16 -5 0 -10 -9 -10
-20 0 -11 -4 -20 -10 -20 -5 0 -10 -9 -10 -20 0 -11 -4 -20 -8 -20 -5 0 -22
-28 -38 -62 -16 -35 -37 -70 -46 -79 -10 -9 -18 -24 -18 -33 0 -9 -4 -16 -10
-16 -5 0 -10 -9 -10 -20 0 -11 -4 -20 -10 -20 -5 0 -10 -8 -10 -18 0 -10 -9
-24 -20 -32 -11 -8 -20 -22 -20 -32 0 -10 -4 -18 -8 -18 -5 0 -15 -16 -22 -35
-8 -20 -20 -41 -27 -47 -7 -6 -27 -39 -43 -74 -17 -35 -35 -66 -40 -69 -5 -3
-23 -34 -41 -68 -60 -120 -97 -188 -111 -205 -8 -9 -25 -39 -38 -67 -14 -27
-33 -57 -42 -66 -10 -9 -18 -24 -18 -33 0 -9 -4 -16 -10 -16 -5 0 -10 -9 -10
-20 0 -11 -4 -20 -10 -20 -5 0 -10 -9 -10 -20 0 -11 -4 -20 -10 -20 -5 0 -10
-8 -10 -18 0 -10 -9 -24 -20 -32 -11 -8 -20 -22 -20 -32 0 -10 -4 -18 -10 -18
-5 0 -10 -9 -10 -20 0 -11 -4 -20 -10 -20 -5 0 -10 -6 -10 -14 0 -7 -7 -19
-15 -26 -8 -7 -33 -49 -56 -94 -74 -147 -106 -206 -121 -224 -8 -9 -31 -51
-52 -94 -20 -42 -43 -82 -51 -88 -8 -7 -15 -19 -15 -26 0 -8 -4 -14 -10 -14
-5 0 -10 -9 -10 -20 0 -11 -4 -20 -10 -20 -5 0 -10 -8 -10 -18 0 -10 -9 -24
-20 -32 -11 -8 -20 -22 -20 -32 0 -10 -4 -18 -10 -18 -5 0 -10 -9 -10 -20 0
-11 -4 -20 -10 -20 -5 0 -10 -9 -10 -20 0 -11 -4 -20 -10 -20 -5 0 -10 -8 -10
-18 0 -10 -9 -24 -20 -32 -11 -8 -20 -22 -20 -32 0 -10 -3 -18 -8 -18 -7 0
-42 -73 -42 -89 0 -5 -7 -14 -15 -21 -8 -7 -33 -50 -55 -96 -23 -46 -45 -86
-50 -89 -5 -3 -27 -43 -50 -89 -22 -46 -46 -89 -53 -94 -7 -6 -19 -27 -27 -47
-7 -19 -17 -35 -22 -35 -4 0 -8 -9 -8 -20 0 -11 -4 -20 -10 -20 -5 0 -10 -8
-10 -18 0 -10 -9 -24 -20 -32 -11 -8 -20 -22 -20 -32 0 -10 -4 -18 -10 -18 -5
0 -10 -9 -10 -20 0 -11 -4 -20 -10 -20 -5 0 -10 -9 -10 -20 0 -11 -4 -20 -10
-20 -5 0 -10 -9 -10 -20 0 -11 -4 -20 -8 -20 -5 0 -33 -47 -62 -105 -29 -58
-56 -108 -61 -110 -4 -3 -26 -44 -49 -90 -23 -46 -45 -87 -50 -90 -5 -3 -32
-52 -60 -109 -28 -57 -57 -110 -65 -116 -8 -7 -15 -19 -15 -26 0 -8 -4 -14
-10 -14 -5 0 -10 -9 -10 -20 0 -11 -4 -20 -10 -20 -5 0 -10 -6 -10 -14 0 -21
-38 -102 -55 -116 -8 -7 -15 -19 -15 -26 0 -8 -4 -14 -10 -14 -5 0 -10 -9 -10
-20 0 -11 -4 -20 -10 -20 -5 0 -10 -9 -10 -20 0 -11 -4 -20 -10 -20 -5 0 -10
-9 -10 -20 0 -11 -4 -20 -10 -20 -5 0 -10 -8 -10 -18 0 -10 -9 -24 -20 -32
-11 -8 -20 -22 -20 -32 0 -10 -4 -18 -10 -18 -5 0 -10 -9 -10 -19 0 -11 -3
-21 -8 -23 -4 -1 -23 -34 -41 -73 -19 -38 -41 -78 -49 -87 -13 -16 -48 -82
-168 -318 -27 -52 -52 -96 -56 -98 -4 -2 -8 -12 -8 -23 0 -10 -4 -19 -10 -19
-5 0 -10 -8 -10 -18 0 -10 -9 -24 -20 -32 -11 -8 -20 -22 -20 -32 0 -10 -4
-18 -10 -18 -5 0 -10 -9 -10 -20 0 -11 -4 -20 -10 -20 -5 0 -10 -9 -10 -20 0
-11 -4 -20 -10 -20 -5 0 -10 -9 -10 -20 0 -11 -4 -20 -8 -20 -5 0 -15 -16 -22
-35 -8 -20 -20 -41 -27 -46 -11 -10 -50 -86 -137 -271 -15 -32 -31 -60 -36
-63 -5 -3 -25 -40 -46 -83 -21 -42 -42 -78 -46 -80 -4 -2 -8 -12 -8 -23 0 -10
-4 -19 -10 -19 -5 0 -10 -9 -10 -20 0 -11 -4 -20 -10 -20 -5 0 -10 -9 -10 -20
0 -11 -4 -20 -10 -20 -5 0 -10 -9 -10 -20 0 -11 -4 -20 -10 -20 -5 0 -10 -8
-10 -18 0 -10 -9 -24 -20 -32 -11 -8 -20 -22 -20 -32 0 -10 -4 -18 -10 -18 -5
0 -10 -9 -10 -19 0 -11 -3 -21 -8 -23 -7 -3 -60 -108 -122 -240 -17 -37 -35
-70 -39 -73 -5 -3 -31 -49 -57 -103 -27 -53 -52 -98 -56 -100 -4 -2 -8 -12 -8
-23 0 -10 -4 -19 -10 -19 -5 0 -10 -9 -10 -20 0 -11 -4 -20 -10 -20 -5 0 -10
-9 -10 -20 0 -11 -4 -20 -10 -20 -5 0 -10 -9 -10 -20 0 -11 -4 -20 -10 -20 -5
0 -10 -9 -10 -20 0 -11 -4 -20 -10 -20 -5 0 -10 -9 -10 -20 0 -11 -4 -20 -10
-20 -5 0 -10 -9 -10 -19 0 -11 -3 -21 -8 -23 -4 -1 -26 -41 -49 -88 -151 -312
-218 -445 -225 -448 -4 -2 -8 -12 -8 -23 0 -10 -4 -19 -10 -19 -5 0 -10 -9
-10 -20 0 -11 -4 -20 -10 -20 -5 0 -10 -9 -10 -20 0 -11 -4 -20 -10 -20 -5 0
-10 -9 -10 -20 0 -11 -4 -20 -10 -20 -5 0 -10 -9 -10 -20 0 -11 -4 -20 -10
-20 -5 0 -10 -9 -10 -20 0 -11 -4 -20 -10 -20 -5 0 -10 -9 -10 -19 0 -11 -4
-21 -8 -23 -4 -1 -29 -48 -56 -103 -26 -55 -61 -127 -77 -159 -16 -32 -29 -64
-29 -70 0 -15 -103 -220 -112 -224 -5 -2 -8 -12 -8 -23 0 -10 -4 -19 -10 -19
-5 0 -10 -13 -10 -30 0 -16 -4 -30 -10 -30 -5 0 -10 -9 -10 -20 0 -11 -4 -20
-10 -20 -5 0 -10 -7 -10 -15 0 -9 -16 -31 -35 -50 -30 -30 -41 -35 -83 -35
-26 0 -54 -6 -61 -12 -11 -10 -14 -10 -18 0 -3 7 -24 12 -54 12 -27 0 -49 5
-49 10 0 6 -24 10 -54 10 -30 0 -58 5 -61 10 -3 6 -39 10 -80 10 -41 0 -77 5
-80 10 -4 6 -60 10 -135 10 -75 0 -131 4 -135 10 -4 6 -138 10 -371 10 -236 0
-364 -4 -364 -10 0 -6 -40 -10 -100 -10 -60 0 -100 -4 -100 -10 0 -5 -24 -10
-54 -10 -30 0 -58 -4 -61 -10 -3 -5 -26 -10 -50 -10 -24 0 -47 -4 -50 -10 -3
-5 -22 -10 -41 -10 -19 0 -34 -4 -34 -10 0 -5 -9 -10 -20 -10 -11 0 -20 -4
-20 -10 0 -5 -8 -10 -18 -10 -10 0 -24 -9 -32 -20 -8 -11 -22 -20 -32 -20 -10
0 -18 -4 -18 -8 0 -5 -16 -17 -35 -28 -19 -10 -35 -21 -35 -25 0 -4 -14 -12
-30 -19 -17 -7 -30 -16 -30 -21 0 -5 -7 -9 -16 -9 -9 0 -29 -13 -44 -30 -15
-16 -33 -30 -40 -30 -6 0 -29 -18 -50 -40 -21 -22 -44 -40 -50 -40 -7 0 -33
-22 -59 -50 -26 -27 -51 -50 -57 -50 -5 0 -89 -79 -187 -175 l-178 -175 -55 0
c-30 0 -54 5 -54 10 0 6 -13 10 -30 10 -16 0 -30 5 -30 10 0 6 -11 10 -25 10
-33 0 -75 42 -75 73 0 13 9 32 20 42 11 10 20 23 20 30 0 7 9 20 20 30 11 10
20 24 20 30 0 7 13 23 30 36 16 13 30 31 30 39 0 9 9 22 20 30 11 8 20 21 20
30 0 9 9 22 20 30 11 8 20 20 20 28 0 7 5 18 10 25 19 23 60 88 60 96 0 4 9
16 20 26 11 10 20 22 20 28 0 5 14 22 30 37 17 15 30 34 30 42 0 7 9 20 20 28
11 8 20 21 20 30 0 9 9 22 20 30 11 8 20 21 20 30 0 9 9 22 20 30 11 8 20 21
20 30 0 9 9 22 20 30 11 8 20 19 20 26 0 6 9 19 20 29 11 10 20 23 20 29 0 5
12 22 26 37 26 27 44 55 63 94 5 12 16 27 25 34 9 7 16 19 16 26 0 6 9 20 20
30 11 10 20 23 20 30 0 7 9 20 20 30 11 10 20 23 20 30 0 7 9 20 20 30 11 10
20 23 20 30 0 7 9 20 20 30 11 10 20 23 20 30 0 7 9 20 20 30 11 10 20 23 20
30 0 6 14 24 30 40 17 16 30 34 30 40 0 7 9 20 20 30 11 10 20 23 20 29 0 7 9
18 20 26 11 8 20 22 20 31 0 9 7 22 15 29 8 7 15 18 15 25 0 6 9 20 20 30 11
10 20 23 20 30 0 7 9 20 20 30 11 10 20 23 20 29 0 7 9 18 20 26 11 8 20 21
20 30 0 9 9 22 20 30 11 8 20 21 20 30 0 9 9 22 20 30 11 8 20 21 20 30 0 9 9
22 20 30 11 8 20 21 20 30 0 9 9 22 20 30 11 8 20 21 20 30 0 9 9 22 20 30 11
8 20 19 20 26 0 6 9 19 20 29 11 10 20 23 20 30 0 6 11 22 25 35 14 13 25 29
25 35 0 7 9 20 20 30 11 10 20 23 20 30 0 7 9 20 20 30 11 10 20 23 20 30 0 7
9 20 20 30 11 10 20 23 20 30 0 7 9 20 20 30 11 10 20 23 20 30 0 7 9 20 20
30 11 10 20 23 20 30 0 7 9 20 20 30 11 10 20 23 20 30 0 7 9 20 20 30 11 10
20 23 20 30 0 7 9 20 20 30 11 10 20 23 20 30 0 7 9 20 20 30 11 10 20 24 20
32 0 7 4 13 10 13 5 0 12 11 16 24 3 14 14 32 25 42 10 9 19 22 19 29 0 7 9
20 20 30 11 10 20 23 20 30 0 7 9 20 20 30 11 10 20 23 20 29 0 7 9 18 20 26
11 8 20 21 20 30 0 9 9 22 20 30 11 8 20 21 20 30 0 9 9 22 20 30 11 8 20 21
20 30 0 9 9 22 20 30 11 8 20 21 20 30 0 9 9 22 20 30 11 8 20 21 20 30 0 8 9
21 20 28 11 7 20 17 20 24 0 6 7 20 17 30 17 19 36 49 52 83 5 12 16 27 25 34
9 7 16 19 16 26 0 6 9 20 20 30 11 10 20 23 20 30 0 7 9 20 20 30 11 10 20 23
20 30 0 7 9 20 20 30 11 10 20 24 20 30 0 7 7 18 15 25 9 7 25 32 35 55 10 23
26 48 35 55 8 7 15 18 15 25 0 6 9 20 20 30 11 10 20 23 20 30 0 7 9 20 20 30
11 10 20 24 20 32 0 7 4 13 9 13 5 0 16 15 26 33 29 57 41 76 58 95 10 10 17
23 17 29 0 5 9 18 20 28 11 10 20 23 20 29 0 7 9 18 20 26 11 8 20 21 20 30 0
9 9 22 20 30 11 8 20 21 20 30 0 9 9 22 20 30 11 8 20 21 20 30 0 9 9 22 20
30 11 8 20 21 20 30 0 9 9 22 20 30 11 8 20 22 20 32 0 10 5 18 10 18 6 0 10
6 10 13 0 8 9 22 20 32 11 10 20 23 20 28 0 6 7 19 17 29 17 19 36 49 52 83 5
12 16 27 25 34 9 7 16 19 16 26 0 6 9 20 20 30 11 10 20 23 20 30 0 7 9 20 20
30 11 10 20 24 20 30 0 7 7 18 15 25 9 7 25 32 35 55 10 23 26 48 35 55 8 7
15 18 15 25 0 6 9 20 20 30 11 10 20 23 20 30 0 7 9 20 20 30 11 10 20 23 20
29 0 7 9 18 20 26 11 8 20 21 20 30 0 9 9 22 20 30 11 8 20 22 20 32 0 9 5 20
10 23 6 3 19 25 30 49 10 23 26 49 35 56 8 7 15 18 15 24 0 6 9 18 20 26 11 8
20 21 20 30 0 9 9 22 20 30 11 8 20 21 20 30 0 9 9 22 20 30 11 8 20 21 20 30
0 9 9 22 20 30 11 8 20 22 20 32 0 10 5 18 10 18 6 0 10 8 10 18 0 10 9 24 20
32 11 8 20 19 20 26 0 6 9 19 20 29 11 10 20 23 20 28 0 6 7 19 17 29 18 20
32 44 62 104 11 22 27 47 36 54 8 7 15 18 15 25 0 6 9 20 20 30 11 10 20 24
20 30 0 7 7 18 15 25 9 7 25 32 35 55 10 23 26 48 35 55 8 7 15 18 15 25 0 6
9 20 20 30 11 10 20 23 20 30 0 7 9 20 20 30 11 10 20 23 20 29 0 7 9 18 20
26 11 8 20 22 20 32 0 10 5 18 10 18 6 0 10 8 10 18 0 10 9 24 20 32 11 8 20
20 20 28 0 7 5 18 10 25 16 19 54 79 70 112 8 17 23 37 32 46 10 9 18 23 18
30 0 8 9 21 20 29 11 8 20 21 20 30 0 9 9 22 20 30 11 8 20 22 20 32 0 10 5
18 10 18 6 0 10 8 10 18 0 10 9 24 20 32 11 8 20 20 20 26 0 6 7 17 15 24 9 7
25 32 35 55 10 23 26 48 35 55 8 7 15 17 15 23 0 6 7 19 17 29 18 20 32 44 62
104 11 22 27 47 36 54 8 7 15 18 15 25 0 7 7 18 15 25 9 7 25 32 35 55 10 23
26 48 35 55 8 7 15 18 15 25 0 6 9 20 20 30 11 10 20 24 20 32 0 7 5 13 10 13
6 0 10 8 10 18 0 10 9 24 20 32 11 8 20 21 20 30 0 9 9 22 20 30 11 8 20 22
20 32 0 10 5 18 10 18 6 0 10 8 10 18 0 10 9 24 20 32 11 8 20 21 20 30 0 9 9
22 20 30 11 8 20 22 20 31 0 10 11 31 25 47 14 17 25 34 25 40 0 5 7 15 15 22
9 7 25 32 35 55 10 23 26 48 35 55 8 7 15 18 15 25 0 7 7 18 15 25 9 7 25 33
35 56 11 24 24 46 30 49 6 3 19 25 30 49 10 23 26 49 35 56 8 7 15 18 15 25 0
7 7 18 15 25 9 7 25 32 35 55 10 23 26 47 34 54 8 7 18 25 21 41 3 15 15 36
26 46 10 9 19 23 19 29 0 7 7 18 15 25 9 7 25 33 36 57 11 24 26 47 34 50 8 3
15 14 15 24 0 10 5 19 10 19 6 0 10 8 10 18 0 10 9 24 20 32 11 8 20 21 20 30
0 9 9 22 20 30 11 8 20 22 20 32 0 10 5 18 10 18 6 0 10 8 10 18 0 10 9 24 20
32 11 8 20 22 20 32 0 10 5 18 10 18 6 0 10 6 10 14 0 7 7 19 15 26 9 7 25 32
36 54 37 75 66 126 81 144 8 9 22 33 31 53 9 20 23 42 32 49 8 7 15 18 15 25
0 7 7 18 15 25 9 7 25 33 35 56 11 24 24 46 30 49 5 3 17 23 27 43 9 20 25 44
35 53 10 9 18 24 18 33 0 9 5 16 10 16 6 0 10 8 10 18 0 10 9 24 20 32 11 8
20 22 20 32 0 10 5 18 10 18 6 0 10 7 10 16 0 9 8 24 18 33 11 9 22 28 25 43
4 15 13 33 21 41 8 7 27 37 42 65 15 29 32 52 36 52 4 0 8 9 8 20 0 11 5 20
10 20 6 0 10 7 10 16 0 9 8 24 18 33 10 9 26 33 35 53 10 20 22 40 27 43 6 3
19 26 30 50 11 24 24 46 30 50 5 3 23 35 40 70 17 35 35 67 40 70 6 4 19 25
31 48 37 75 66 127 81 145 8 9 22 33 31 53 9 20 23 42 32 49 8 7 15 19 15 26
0 8 5 14 10 14 6 0 10 8 10 18 0 10 9 24 20 32 11 8 20 22 20 32 0 10 5 18 10
18 6 0 10 8 10 18 0 10 9 24 20 32 11 8 20 22 20 32 0 10 5 18 10 18 6 0 10 9
10 20 0 11 5 20 10 20 6 0 10 7 10 16 0 9 8 24 18 33 9 9 24 30 32 46 8 17 21
38 28 47 15 18 45 72 81 145 12 23 25 44 31 48 5 3 23 35 40 70 17 35 35 67
40 70 5 3 17 23 26 43 10 20 25 46 34 57 10 11 23 35 31 53 8 17 17 32 21 32
5 0 8 8 8 18 0 10 9 24 20 32 11 8 20 22 20 32 0 10 5 18 10 18 6 0 10 8 10
18 0 10 9 24 20 32 11 8 20 22 20 32 0 10 5 18 10 18 6 0 10 9 10 20 0 11 3
20 8 20 4 0 22 29 40 65 19 35 38 67 43 70 5 4 18 26 29 50 11 24 24 46 30 50
5 3 23 35 40 70 17 35 35 67 40 70 5 3 23 35 40 70 17 35 35 67 40 70 5 3 17
23 26 43 10 20 24 45 32 54 14 17 50 82 111 204 17 34 38 67 46 74 8 7 15 19
15 26 0 8 5 14 10 14 6 0 10 8 10 18 0 10 9 24 20 32 11 8 20 22 20 32 0 10 5
18 10 18 6 0 10 9 10 20 0 11 5 20 10 20 6 0 10 8 10 18 0 10 9 24 20 32 11 8
20 22 20 32 0 10 4 18 8 18 5 0 15 16 22 35 8 20 20 41 27 47 7 6 27 39 43 73
16 34 37 68 45 75 8 7 15 17 15 22 0 15 39 96 50 103 5 3 23 35 40 70 17 35
35 67 40 70 5 3 21 31 36 63 16 31 36 64 46 73 10 9 18 24 18 33 0 9 5 16 10
16 6 0 10 9 10 20 0 11 5 20 10 20 6 0 10 8 10 18 0 10 9 24 20 32 11 8 20 22
20 32 0 10 5 18 10 18 6 0 10 9 10 20 0 11 5 20 10 20 6 0 10 7 10 16 0 9 8
24 18 33 18 16 26 31 61 113 12 26 25 49 31 53 5 3 23 35 40 70 17 35 35 67
40 70 5 3 27 43 50 89 22 46 46 89 53 94 7 6 19 27 27 47 7 19 17 35 22 35 4
0 8 8 8 18 0 10 9 24 20 32 11 8 20 22 20 32 0 10 5 18 10 18 6 0 10 9 10 20
0 11 5 20 10 20 6 0 10 9 10 20 0 11 5 20 10 20 6 0 10 9 10 20 0 11 3 20 8
20 4 0 27 38 51 85 24 47 47 88 52 90 4 3 26 44 49 90 23 46 45 87 50 90 5 3
27 44 50 90 23 46 45 87 50 90 4 3 25 40 46 83 21 42 46 84 56 93 10 9 18 21
18 27 0 19 59 139 75 152 8 7 15 19 15 26 0 8 5 14 10 14 6 0 10 9 10 20 0 11
5 20 10 20 6 0 10 9 10 20 0 11 5 20 10 20 6 0 10 9 10 20 0 11 5 20 10 20 6
0 10 8 10 18 0 10 9 24 20 32 11 8 20 22 20 31 0 10 3 19 8 21 4 2 23 35 41
73 19 39 41 78 49 87 14 16 60 105 172 326 29 57 59 106 66 109 8 3 14 14 14
24 0 10 5 19 10 19 6 0 10 9 10 20 0 11 5 20 10 20 6 0 10 9 10 20 0 11 5 20
10 20 6 0 10 9 10 20 0 11 5 20 10 20 6 0 10 9 10 20 0 11 5 20 10 20 6 0 10
8 10 18 0 10 9 24 20 32 11 8 20 22 20 31 0 10 4 19 8 21 4 2 29 46 56 98 165
325 195 383 210 399 9 10 16 23 16 29 0 7 5 12 10 12 6 0 10 9 10 20 0 11 5
20 10 20 6 0 10 9 10 20 0 11 5 20 10 20 6 0 10 9 10 20 0 11 5 20 10 20 6 0
10 9 10 20 0 11 5 20 10 20 6 0 10 9 10 20 0 11 5 20 10 20 6 0 10 9 10 20 0
11 5 20 10 20 6 0 10 11 10 24 0 14 5 28 10 31 6 3 10 17 10 30 0 13 5 27 10
30 6 3 10 21 10 40 0 19 5 37 10 40 6 3 10 35 10 71 0 60 -2 67 -35 99 -19 19
-41 35 -50 35 -8 0 -15 5 -15 10 0 6 -18 10 -40 10 -22 0 -40 5 -40 10 0 6
-33 10 -79 10 -44 0 -83 -4 -86 -10 -3 -6 -52 -10 -111 -10 -63 0 -104 -4
-104 -10 0 -6 -35 -10 -84 -10 -47 0 -88 -4 -91 -10 -3 -5 -39 -10 -80 -10
-41 0 -77 -4 -80 -10 -3 -5 -35 -10 -71 -10 -36 0 -64 -4 -64 -10 0 -6 -27
-10 -60 -10 -33 0 -60 -4 -60 -10 0 -5 -24 -10 -54 -10 -30 0 -58 -4 -61 -10
-3 -5 -26 -10 -50 -10 -24 0 -47 -4 -50 -10 -3 -5 -30 -10 -60 -10 -30 0 -57
-4 -60 -10 -3 -5 -26 -10 -51 -10 -24 0 -44 -4 -44 -10 0 -5 -15 -10 -34 -10
-19 0 -38 -4 -41 -10 -3 -5 -26 -10 -50 -10 -24 0 -47 -4 -50 -10 -3 -5 -21
-10 -40 -10 -19 0 -37 -4 -40 -10 -3 -5 -21 -10 -40 -10 -19 0 -36 -4 -39 -9
-3 -5 -37 -12 -76 -16 -38 -4 -70 -11 -70 -16 0 -5 -18 -9 -40 -9 -22 0 -40
-4 -40 -10 0 -5 -13 -10 -30 -10 -16 0 -30 -4 -30 -10 0 -5 -18 -10 -40 -10
-22 0 -40 -4 -40 -10 0 -5 -11 -10 -24 -10 -14 0 -28 -4 -31 -10 -3 -5 -21
-10 -40 -10 -19 0 -37 -4 -40 -10 -3 -5 -17 -10 -30 -10 -13 0 -27 -4 -30 -10
-3 -5 -17 -10 -30 -10 -13 0 -27 -4 -30 -10 -3 -5 -17 -10 -31 -10 -13 0 -24
-4 -24 -10 0 -5 -13 -10 -30 -10 -16 0 -30 -4 -30 -10 0 -5 -13 -10 -30 -10
-16 0 -30 -4 -30 -10 0 -5 -13 -10 -30 -10 -16 0 -30 -4 -30 -10 0 -5 -11 -10
-24 -10 -14 0 -28 -4 -31 -10 -3 -5 -17 -10 -30 -10 -13 0 -27 -4 -30 -10 -3
-5 -17 -10 -30 -10 -13 0 -27 -4 -30 -10 -3 -5 -15 -10 -25 -10 -11 0 -35 -9
-55 -20 -20 -11 -44 -20 -55 -20 -10 0 -22 -4 -25 -10 -3 -5 -17 -10 -30 -10
-13 0 -27 -4 -30 -10 -3 -5 -14 -10 -24 -10 -10 0 -32 -7 -47 -15 -16 -8 -39
-15 -51 -15 -13 0 -23 -4 -23 -10 0 -5 -13 -10 -30 -10 -16 0 -30 -4 -30 -10
0 -5 -9 -10 -20 -10 -11 0 -20 -4 -20 -10 0 -5 -13 -10 -30 -10 -16 0 -30 -4
-30 -10 0 -5 -9 -10 -20 -10 -11 0 -20 -4 -20 -10 0 -5 -9 -10 -20 -10 -11 0
-35 -9 -55 -20 -20 -11 -42 -20 -49 -20 -8 0 -40 -13 -71 -30 -31 -16 -63 -30
-71 -30 -7 0 -29 -9 -49 -20 -20 -11 -44 -20 -55 -20 -11 0 -20 -4 -20 -10 0
-5 -9 -10 -20 -10 -11 0 -20 -4 -20 -10 0 -5 -9 -10 -20 -10 -11 0 -20 -4 -20
-10 0 -5 -13 -10 -29 -10 -16 0 -31 -4 -33 -8 -4 -10 -172 -92 -189 -92 -17 0
-403 -192 -407 -202 -2 -4 -12 -8 -23 -8 -10 0 -19 -4 -19 -10 0 -5 -9 -10
-20 -10 -11 0 -20 -4 -20 -10 0 -5 -9 -10 -20 -10 -11 0 -20 -4 -20 -10 0 -5
-9 -10 -20 -10 -11 0 -20 -4 -20 -10 0 -5 -9 -10 -20 -10 -11 0 -20 -4 -20
-10 0 -5 -9 -10 -20 -10 -11 0 -20 -3 -20 -8 0 -4 -15 -13 -32 -21 -18 -8 -42
-22 -53 -31 -11 -10 -39 -26 -62 -36 -24 -10 -43 -21 -43 -26 0 -4 -9 -8 -20
-8 -11 0 -20 -4 -20 -10 0 -5 -6 -10 -13 -10 -8 0 -22 -9 -32 -20 -10 -11 -23
-20 -30 -20 -7 0 -20 -9 -30 -20 -10 -11 -23 -20 -30 -20 -6 0 -24 -13 -40
-30 -16 -16 -34 -30 -40 -30 -7 0 -20 -9 -30 -20 -10 -11 -23 -20 -30 -20 -6
0 -29 -18 -50 -40 -21 -22 -44 -40 -50 -40 -6 0 -29 -18 -50 -40 -21 -22 -44
-40 -50 -40 -6 0 -31 -20 -55 -45 -24 -25 -49 -45 -55 -45 -6 0 -55 -45 -110
-100 -55 -55 -104 -100 -110 -100 -13 0 -175 -162 -175 -175 0 -6 -47 -57
-105 -115 -58 -58 -105 -109 -105 -115 0 -6 -27 -37 -60 -70 -33 -33 -60 -64
-60 -70 0 -6 -18 -29 -40 -50 -22 -21 -40 -44 -40 -50 0 -6 -16 -26 -35 -45
-19 -19 -35 -39 -35 -45 0 -6 -18 -29 -40 -50 -22 -21 -40 -44 -40 -50 0 -6
-14 -24 -30 -40 -16 -16 -30 -34 -30 -40 0 -6 -13 -24 -30 -40 -16 -16 -30
-34 -30 -40 0 -7 -9 -20 -20 -30 -11 -10 -20 -22 -20 -28 0 -5 -13 -22 -30
-37 -16 -15 -30 -34 -30 -42 0 -7 -9 -20 -20 -28 -11 -8 -20 -22 -20 -31 0 -9
-7 -22 -15 -29 -8 -7 -15 -18 -15 -25 0 -6 -9 -20 -20 -30 -11 -10 -20 -23
-20 -30 0 -7 -9 -20 -20 -30 -11 -10 -20 -23 -20 -29 0 -7 -9 -18 -20 -26 -11
-8 -20 -22 -20 -32 0 -10 -4 -18 -10 -18 -5 0 -10 -8 -10 -18 0 -10 -9 -24
-20 -32 -11 -8 -20 -21 -20 -30 0 -9 -9 -22 -20 -30 -11 -8 -20 -22 -20 -32 0
-10 -4 -18 -10 -18 -5 0 -10 -9 -10 -20 0 -11 -4 -20 -10 -20 -5 0 -10 -6 -10
-14 0 -7 -7 -19 -15 -26 -8 -7 -27 -37 -41 -69 -15 -31 -34 -64 -42 -74 -9 -9
-20 -27 -26 -40 -6 -12 -23 -24 -36 -25 -14 -2 -29 -8 -34 -13 -13 -12 -126
-12 -126 1 0 6 -7 10 -15 10 -9 0 -27 11 -40 25 -21 20 -25 34 -25 80 0 30 5
55 10 55 6 0 10 14 10 30 0 17 5 30 10 30 6 0 10 9 10 20 0 11 5 20 10 20 6 0
10 14 10 30 0 17 5 30 10 30 6 0 10 11 10 24 0 14 5 28 10 31 6 3 10 21 10 40
0 19 5 37 10 40 6 3 10 17 10 30 0 13 5 27 10 30 6 3 10 17 10 30 0 13 5 27
10 30 6 3 10 22 10 41 0 19 5 34 10 34 6 0 10 14 10 30 0 17 5 30 10 30 6 0
10 18 10 40 0 22 5 40 10 40 6 0 10 14 10 30 0 17 5 30 10 30 6 0 10 15 10 34
0 19 4 37 9 40 5 3 12 37 16 76 4 39 11 73 16 76 5 3 9 20 9 39 0 19 4 37 10
40 5 3 10 21 10 40 0 19 4 37 10 40 6 3 10 22 10 41 0 19 5 34 10 34 6 0 10
18 10 40 0 22 5 40 10 40 6 0 10 15 10 34 0 19 5 38 10 41 5 3 10 21 10 40 0
19 5 37 10 40 6 3 10 26 10 50 0 24 4 47 10 50 5 3 10 21 10 40 0 19 5 37 10
40 6 3 10 40 10 81 0 43 4 74 10 74 6 0 10 18 10 40 0 22 5 40 10 40 6 0 10 9
10 19 0 11 4 21 8 23 4 2 20 28 35 59 14 30 38 66 52 79 14 13 25 28 25 34 0
14 101 116 115 116 6 0 24 14 40 30 16 17 34 30 40 30 7 0 20 9 30 20 10 11
23 20 30 20 7 0 19 8 28 18 9 10 32 24 52 32 19 8 35 17 35 22 0 4 9 8 20 8
11 0 20 5 20 10 0 6 9 10 20 10 11 0 20 4 20 8 0 11 134 82 154 82 9 0 16 5
16 10 0 6 9 10 20 10 11 0 20 5 20 10 0 6 9 10 20 10 11 0 20 5 20 10 0 6 9
10 20 10 11 0 20 5 20 10 0 6 9 10 19 10 11 0 21 3 23 8 4 9 249 132 264 132
15 0 138 63 142 73 2 4 12 7 23 7 10 0 19 5 19 10 0 6 9 10 20 10 11 0 20 5
20 10 0 6 13 10 29 10 16 0 31 3 33 8 4 10 155 82 173 82 7 0 39 14 70 30 31
17 63 30 70 30 7 0 39 14 70 30 31 17 63 30 71 30 7 0 29 9 49 20 20 11 44 20
55 20 11 0 20 5 20 10 0 6 9 10 20 10 11 0 20 5 20 10 0 6 9 10 20 10 11 0 20
5 20 10 0 6 14 10 30 10 17 0 30 5 30 10 0 6 9 10 20 10 11 0 20 5 20 10 0 6
9 10 20 10 11 0 35 9 55 20 20 11 42 20 50 20 8 0 30 9 50 20 20 11 42 20 50
20 8 0 30 9 50 20 20 11 44 20 55 20 10 0 22 5 25 10 3 6 16 10 28 10 12 0 35
7 51 15 15 8 37 15 47 15 10 0 21 5 24 10 3 6 17 10 31 10 13 0 24 5 24 10 0
6 9 10 20 10 11 0 20 5 20 10 0 6 14 10 30 10 17 0 30 5 30 10 0 6 14 10 30
10 17 0 30 5 30 10 0 6 14 10 30 10 17 0 30 3 30 8 0 10 50 32 71 32 10 0 21
5 24 10 3 6 17 10 30 10 13 0 27 5 30 10 3 6 17 10 30 10 13 0 27 5 30 10 3 6
17 10 30 10 13 0 27 5 30 10 3 6 17 10 30 10 13 0 27 5 30 10 3 6 17 10 31 10
13 0 24 5 24 10 0 6 14 10 30 10 17 0 30 5 30 10 0 6 14 10 30 10 17 0 30 5
30 10 0 6 11 10 24 10 14 0 28 5 31 10 3 6 17 10 30 10 13 0 27 5 30 10 3 6
17 10 30 10 13 0 27 5 30 10 3 6 17 10 30 10 13 0 26 4 29 9 4 5 29 12 56 16
27 4 52 11 56 16 3 5 20 9 39 9 19 0 37 5 40 10 3 6 17 10 31 10 13 0 24 5 24
10 0 6 14 10 30 10 17 0 30 5 30 10 0 6 14 10 30 10 17 0 30 5 30 10 0 6 18
10 40 10 22 0 40 5 40 10 0 6 14 10 30 10 17 0 30 5 30 10 0 6 15 10 34 10 19
0 38 5 41 10 3 6 17 10 30 10 13 0 27 5 30 10 3 6 21 10 40 10 19 0 37 5 40
10 3 6 22 10 41 10 19 0 34 5 34 10 0 6 14 10 30 10 17 0 30 5 30 10 0 6 18
10 40 10 22 0 40 5 40 10 0 6 15 10 34 10 19 0 38 5 41 10 3 6 21 10 40 10 19
0 37 5 40 10 3 6 21 10 40 10 19 0 37 5 40 10 3 6 21 10 40 10 19 0 37 5 40
10 3 6 21 10 40 10 19 0 37 5 40 10 3 6 21 10 40 10 19 0 36 4 39 9 6 9 28 14
146 31 41 6 83 15 92 20 10 6 36 10 57 10 22 0 43 5 46 10 3 6 26 10 50 10 24
0 47 5 50 10 3 6 26 10 51 10 24 0 44 5 44 10 0 6 23 10 50 10 28 0 50 5 50
10 0 6 24 10 54 10 30 0 58 5 61 10 3 6 26 10 50 10 24 0 47 5 50 10 3 6 31
10 61 10 30 0 54 5 54 10 0 6 27 10 60 10 33 0 60 4 60 10 0 6 24 10 54 10 30
0 58 5 61 10 3 6 30 10 60 10 30 0 57 5 60 10 3 6 30 10 60 10 30 0 57 5 60
10 3 6 35 10 71 10 36 0 64 4 64 10 0 6 28 10 64 10 36 0 68 5 71 10 3 6 35
10 70 10 35 0 67 5 70 10 3 6 40 10 81 10 43 0 74 4 74 10 0 6 31 10 74 10 41
0 78 5 81 10 3 6 39 10 79 10 39 0 76 4 82 9 8 9 53 13 269 27 49 3 94 9 100
14 5 4 97 11 203 15 106 4 195 11 198 16 3 5 61 9 130 9 76 0 124 4 124 10 0
6 55 10 144 10 86 0 147 4 151 10 4 6 73 10 175 10 102 0 171 4 175 10 4 6
100 10 255 10 155 0 251 4 255 10 4 7 287 10 815 10 528 0 811 -3 815 -10z"/>
</g>
</svg>
