<?xml version="1.0" standalone="no"?>
<!DOCTYPE svg PUBLIC "-//W3C//DTD SVG 20010904//EN"
 "http://www.w3.org/TR/2001/REC-SVG-20010904/DTD/svg10.dtd">
<svg version="1.0" xmlns="http://www.w3.org/2000/svg"
 width="2249.000000pt" height="2249.000000pt" viewBox="0 0 2249.000000 2249.000000"
 preserveAspectRatio="xMidYMid meet">
<metadata>
Created by potrace 1.11, written by Peter Selinger 2001-2013
</metadata>
<g transform="translate(0.000000,2249.000000) scale(0.100000,-0.100000)"
fill="#000000" stroke="none">
<path d="M10490 22473 c-694 -57 -1140 -121 -1695 -244 -2812 -622 -5308
-2335 -6914 -4744 -960 -1440 -1568 -3046 -1795 -4745 -77 -571 -89 -807 -84
-1620 5 -737 10 -831 74 -1330 246 -1941 998 -3784 2183 -5355 1461 -1936
3516 -3357 5826 -4030 550 -160 1079 -271 1725 -362 l195 -27 1180 -4 c1042
-3 1197 -1 1325 13 2953 334 5647 1823 7516 4155 1468 1832 2319 4059 2454
6424 13 231 13 1023 0 1252 -159 2750 -1287 5306 -3205 7263 -1139 1161 -2492
2051 -4010 2636 -821 316 -1727 542 -2626 654 -502 63 -520 64 -1344 66 -418
1 -780 0 -805 -2z m1320 -153 c1407 -77 2703 -389 3965 -953 929 -415 1868
-1007 2640 -1666 329 -280 833 -772 1090 -1061 1426 -1610 2327 -3487 2680
-5584 13 -82 23 -151 22 -152 -2 -2 -30 1 -64 6 -180 25 -548 -71 -1233 -322
-685 -252 -1357 -546 -1740 -761 -222 -126 -241 -148 -486 -557 -529 -882
-1021 -1778 -1841 -3349 l-149 -285 -94 -39 c-155 -63 -523 -183 -695 -226
-421 -105 -791 -151 -1210 -151 -658 0 -1244 121 -1890 392 -66 27 -124 53
-128 58 -17 15 786 1494 1183 2180 268 463 591 973 863 1364 139 199 169 310
98 363 -39 28 -73 26 -1231 -62 -790 -60 -846 -63 -1380 -76 -499 -12 -534
-16 -567 -65 -21 -32 -20 -117 2 -150 33 -51 69 -57 223 -35 190 28 443 41
802 42 372 2 482 -13 568 -78 65 -49 98 -163 90 -311 -12 -200 -206 -672 -594
-1442 -268 -533 -720 -1380 -736 -1380 -26 0 -426 269 -646 434 -331 250 -562
452 -872 765 -491 495 -823 898 -1302 1581 -865 1234 -1639 2433 -2193 3395
-238 413 -252 445 -225 496 19 35 69 49 262 74 954 124 1825 418 2535 855 783
482 1346 1163 1482 1794 72 333 29 709 -112 980 -78 150 -208 305 -345 409
-529 404 -1660 617 -3157 594 -1241 -20 -2261 -171 -3247 -482 -434 -137
-1048 -380 -1370 -541 -49 -24 -88 -41 -88 -38 0 3 37 49 83 102 1611 1884
3786 3173 6186 3666 584 120 1038 177 1746 219 134 8 912 6 1075 -3z m-3597
-3175 c332 -32 583 -101 852 -235 270 -134 457 -289 588 -487 73 -110 103
-173 146 -307 63 -196 75 -280 75 -521 1 -405 -69 -721 -230 -1044 -115 -231
-236 -401 -424 -595 -339 -350 -780 -609 -1365 -804 -554 -184 -1248 -290
-2024 -309 -238 -6 -266 -8 -283 -25 -10 -10 -18 -29 -18 -43 0 -15 49 -108
114 -218 62 -106 237 -406 388 -667 344 -594 1346 -2273 1611 -2700 443 -712
1129 -1638 1603 -2165 691 -768 1455 -1323 2266 -1646 56 -22 106 -43 110 -45
3 -2 -73 -143 -169 -312 -97 -169 -178 -316 -181 -327 -7 -25 -431 -692 -902
-1415 -262 -402 -1133 -1714 -1592 -2397 -241 -358 -438 -656 -438 -661 0 -5
15 -17 33 -26 l32 -17 125 70 c206 117 490 229 651 257 48 8 199 19 336 23
260 8 297 15 337 59 10 12 52 103 92 204 117 289 227 529 391 858 196 395 319
614 688 1230 342 571 606 1019 779 1320 65 113 149 246 186 295 37 50 136 207
220 350 83 143 153 261 154 262 1 1 78 -14 171 -33 489 -99 1091 -154 1685
-154 821 0 1476 131 2273 453 48 20 85 32 83 29 -2 -4 -124 -272 -271 -597
-147 -324 -272 -599 -279 -610 -7 -11 -16 -33 -20 -50 -4 -16 -70 -165 -146
-330 -329 -716 -550 -1247 -767 -1840 -96 -262 -142 -414 -172 -565 -89 -455
-54 -767 112 -985 119 -157 316 -240 567 -238 351 3 917 82 1285 178 238 63
783 256 1129 400 208 87 211 88 241 138 30 53 31 76 4 111 -31 39 -64 33 -168
-28 -236 -139 -659 -296 -991 -368 -90 -19 -134 -22 -315 -22 -185 0 -219 3
-290 22 -212 59 -363 175 -443 342 -152 320 -106 760 170 1600 217 663 516
1384 1014 2445 638 1362 1534 2902 2378 4090 288 406 827 957 1140 1167 353
236 985 442 1411 460 l70 3 12 -95 c17 -132 50 -473 65 -670 9 -109 13 -362
13 -745 -1 -620 -7 -759 -61 -1235 -177 -1591 -687 -3097 -1513 -4475 -633
-1056 -1467 -2030 -2420 -2823 -1632 -1360 -3624 -2224 -5721 -2481 -512 -63
-753 -76 -1375 -76 -589 0 -755 9 -1225 61 -1591 177 -3093 683 -4465 1506
-1840 1104 -3330 2727 -4271 4653 -593 1214 -957 2512 -1078 3840 -32 345 -37
459 -43 891 -6 446 2 706 33 1079 152 1850 767 3632 1789 5180 187 284 218
327 209 290 -31 -130 -101 -382 -135 -484 -46 -139 -44 -164 10 -176 54 -12
78 11 165 155 293 487 642 872 1016 1122 115 76 442 242 670 338 617 262 1148
408 1692 466 237 25 298 10 298 -69 0 -75 -29 -146 -157 -387 -789 -1479
-1893 -3383 -2833 -4885 -704 -1125 -1546 -2407 -2407 -3663 -84 -123 -153
-229 -153 -237 0 -19 21 -33 72 -46 l45 -12 86 85 c101 101 202 185 315 261
74 50 93 57 180 74 141 26 571 26 763 -1 75 -10 148 -16 163 -12 23 6 37 27
94 149 431 922 1418 2742 2507 4622 1162 2006 2010 3358 2446 3900 165 205
292 278 556 319 120 19 445 19 636 1z"/>
</g>
</svg>
